<?xml version="1.0" encoding="UTF-8" standalone="no"?>
<svg
   xmlns:dc="http://purl.org/dc/elements/1.1/"
   xmlns:cc="http://creativecommons.org/ns#"
   xmlns:rdf="http://www.w3.org/1999/02/22-rdf-syntax-ns#"
   xmlns:svg="http://www.w3.org/2000/svg"
   xmlns="http://www.w3.org/2000/svg"
   class="img-fluid"
   id="outputsvg"
   width="2362"
   height="2362"
   viewBox="0 0 23620 23620"
   version="1.1">
  <metadata
     id="metadata607">
    <rdf:RDF>
      <cc:Work
         rdf:about="">
        <dc:format>image/svg+xml</dc:format>
        <dc:type
           rdf:resource="http://purl.org/dc/dcmitype/StillImage" />
        <dc:title></dc:title>
      </cc:Work>
    </rdf:RDF>
  </metadata>
  <defs
     id="defs605" />
  <g
     id="l6K0H7fIZEAF5bbZrPKbUY5"
     fill="rgb(33,58,150)"
     style="transform: none;">
    <g
       id="g531">
      <path
         id="ppf0oYBdm"
         d="M15243 10769 c-101 -13 -182 -37 -273 -80 -120 -57 -227 -166 -293 -299 -48 -98 -100 -276 -109 -377 l-5 -51 93 -7 c174 -13 375 23 509 93 85 44 197 152 247 237 67 116 119 275 136 416 l8 67 -59 6 c-75 8 -174 6 -254 -5z" />
      <path
         id="plakcM7wR"
         d="M8634 9917 c-96 -71 -160 -134 -224 -219 -73 -96 -101 -149 -130 -246 -32 -104 -25 -279 15 -402 36 -112 116 -270 171 -339 6 -6 76 43 145 102 74 63 162 166 214 253 120 199 116 450 -12 709 -39 79 -105 185 -114 185 -4 0 -33 -20 -65 -43z" />
      <path
         id="p19cCbVwTP"
         d="M17080 8346 c-155 -33 -321 -119 -465 -241 l-30 -26 111 -107 c186 -179 333 -252 525 -260 131 -5 231 17 365 82 85 42 232 142 263 179 12 15 5 26 -60 93 -221 227 -477 329 -709 280z" />
      <path
         id="p19JdwnYeW"
         d="M5063 7126 c-315 -60 -495 -236 -589 -576 -13 -46 -27 -112 -30 -146 -6 -58 -5 -61 17 -67 54 -15 294 -7 387 12 258 54 436 218 528 488 34 99 71 280 59 291 -13 13 -301 11 -372 -2z" />
      <path
         id="pu926obIG"
         d="M13341 6548 c-62 -155 -74 -219 -75 -383 -1 -133 2 -158 23 -224 59 -179 230 -354 460 -470 35 -18 69 -30 76 -27 16 6 71 157 95 261 75 326 -14 573 -276 770 -64 48 -245 154 -265 155 -3 0 -21 -37 -38 -82z" />
      <path
         id="p2ykgX39U"
         d="M6735 6373 c-129 -16 -282 -75 -371 -143 -146 -113 -258 -339 -292 -587 l-9 -62 45 -7 c24 -4 110 -4 191 -1 226 8 373 59 500 174 134 120 233 336 266 574 l6 46 -47 7 c-48 6 -235 6 -289 -1z" />
      <path
         id="p10lGwx6s4"
         d="M9939 6046 c-187 -141 -312 -319 -351 -500 -16 -74 -4 -247 22 -331 31 -99 66 -180 110 -255 67 -114 60 -110 117 -71 205 145 348 340 389 531 19 90 14 199 -16 316 -21 82 -122 299 -162 347 l-23 27 -86 -64z" />
      <path
         id="pQj5oSRp1"
         d="M16815 4303 c-115 -16 -355 -93 -355 -115 0 -24 98 -196 154 -271 149 -198 336 -297 559 -297 111 0 261 30 383 77 88 33 92 36 84 59 -41 108 -149 266 -246 361 -135 132 -287 194 -469 191 -44 0 -93 -3 -110 -5z" />
      <path
         id="pL1a28EAG"
         d="M11982 2747 c-111 -176 -162 -321 -169 -482 -10 -220 67 -388 266 -577 43 -42 98 -89 121 -104 l42 -28 19 25 c39 49 109 176 138 250 44 109 62 199 62 303 1 107 -12 165 -56 263 -43 93 -82 150 -169 241 -66 69 -189 172 -207 172 -4 0 -25 -28 -47 -63z" />
    </g>
  </g>
  <path
     style="fill:#e16d1a"
     id="p7YRRrUOZ"
     d="m 5780,5388 c -96,-50 -109,-179 -26,-257 37,-35 127,-41 174,-12 101,64 94,219 -13,271 -53,26 -81,25 -135,-2 z" />
  <path
     style="fill:#e16d1a"
     id="pvm36QkhF"
     d="m 5834,6520 c -72,-36 -106,-138 -70,-208 75,-144 286,-93 286,69 0,58 -34,114 -85,139 -52,25 -80,25 -131,0 z" />
  <path
     style="fill:#e16d1a"
     id="pTHsCzmNP"
     d="m 7251,6718 c -57,-38 -75,-72 -75,-133 0,-39 5,-62 20,-82 68,-92 176,-97 247,-13 52,62 45,149 -17,209 -29,28 -45,35 -88,39 -44,3 -59,0 -87,-20 z" />
  <path
     style="fill:#e16d1a"
     id="ptsjjoUQa"
     d="m 6522,8690 c -36,-22 -71,-88 -72,-133 0,-68 59,-140 126,-153 79,-15 152,35 174,116 16,58 -1,110 -50,154 -35,32 -46,36 -93,36 -34,0 -63,-7 -85,-20 z" />
  <path
     style="fill:#e16d1a"
     id="pEoStAZsV"
     d="m 2813,8569 c -78,-16 -131,-94 -119,-173 25,-155 225,-182 288,-38 51,114 -47,237 -169,211 z" />
  <path
     style="fill:#e16d1a"
     id="prxJnb6MQ"
     d="m 4350,10789 c -157,-65 -118,-303 50,-303 35,0 59,6 78,20 96,72 97,196 1,266 -31,23 -95,32 -129,17 z" />
  <path
     style="fill:#e16d1a"
     id="p54yjMHXq"
     d="m 5726,9550 c -92,-29 -137,-152 -83,-230 36,-54 71,-74 127,-74 56,0 91,20 128,74 75,111 -43,270 -172,230 z" />
  <path
     style="fill:#e16d1a"
     id="po1Uu9M9k"
     d="m 8181,11741 c -137,-73 -86,-291 68,-291 89,0 151,64 151,156 0,117 -117,189 -219,135 z" />
  <path
     style="fill:#e16d1a"
     id="p7IuFp4zj"
     d="m 7194,10180 c -141,-70 -92,-290 65,-290 156,0 210,210 75,287 -48,28 -87,29 -140,3 z" />
  <path
     style="fill:#e16d1a"
     id="p10p75k9n9"
     d="m 8525,6935 c -110,-39 -140,-173 -56,-256 47,-47 95,-58 156,-34 66,25 90,64 90,147 0,63 -2,69 -35,103 -19,19 -50,40 -70,45 -42,12 -36,12 -85,-5 z" />
  <path
     style="fill:#e16d1a"
     id="p1HHMyY10o"
     d="m 10050,4591 c -19,-10 -45,-36 -57,-57 -77,-133 61,-285 197,-216 104,52 109,210 8,272 -41,25 -103,26 -148,1 z" />
  <path
     style="fill:#e16d1a"
     id="p16S3Fm2qP"
     d="m 10941,2860 c -18,-5 -50,-24 -69,-44 -31,-31 -36,-42 -40,-96 -4,-52 -1,-65 21,-99 18,-27 40,-44 71,-56 62,-24 110,-14 157,34 112,111 13,296 -140,261 z" />
  <path
     style="fill:#e16d1a"
     id="pfTCYTk6p"
     d="m 15692,3740 c -101,-62 -96,-220 8,-272 131,-66 271,82 201,212 -40,76 -137,104 -209,60 z" />
  <path
     style="fill:#e16d1a"
     id="p5MCpZUAo"
     d="m 13275,5570 c -72,-16 -117,-74 -117,-149 0,-66 26,-110 82,-139 73,-38 141,-19 194,52 31,40 29,130 -2,174 -37,51 -100,76 -157,62 z" />
  <path
     style="fill:#e16d1a"
     id="pTdQSizel"
     d="m 14732,6500 c -91,-55 -98,-199 -12,-260 67,-48 165,-33 212,33 30,41 35,121 11,167 -39,75 -139,104 -211,60 z" />
  <path
     style="fill:#e16d1a"
     id="pXPKusU2t"
     d="m 12039,7677 c -86,-57 -91,-181 -10,-250 67,-56 169,-40 218,34 22,34 25,47 21,100 -4,57 -8,65 -46,100 -37,35 -46,39 -95,39 -40,0 -63,-6 -88,-23 z" />
  <path
     style="fill:#e16d1a"
     id="pBcVsjvBk"
     d="m 9280,8612 c -52,-29 -73,-64 -77,-129 -3,-46 0,-65 16,-91 63,-100 212,-95 263,8 35,69 15,160 -45,202 -42,30 -113,34 -157,10 z" />
  <path
     style="fill:#e16d1a"
     id="pnnfiBEyQ"
     d="m 10090,10029 c -14,-6 -36,-20 -48,-32 -107,-99 -39,-272 106,-269 151,2 197,218 62,289 -46,25 -80,28 -120,12 z" />
  <path
     style="fill:#e16d1a"
     id="ppH0Uxr7L"
     d="m 12221,9278 c -140,-75 -88,-292 69,-292 83,0 140,57 148,146 3,44 0,59 -20,87 -53,78 -123,99 -197,59 z" />
  <path
     style="fill:#e16d1a"
     id="p30ByONmn"
     d="m 12232,12280 c -101,-62 -96,-214 8,-267 54,-28 82,-29 135,-3 144,69 94,290 -65,290 -27,0 -58,-8 -78,-20 z" />
  <path
     style="fill:#e16d1a"
     id="pe1OtUYrp"
     d="m 15872,10750 c -47,-29 -72,-76 -72,-136 0,-156 200,-212 277,-78 78,135 -74,294 -205,214 z" />
  <path
     style="fill:#e16d1a"
     id="p4Lua8iOI"
     d="m 15380,7922 c -52,-28 -80,-75 -80,-134 0,-93 50,-150 138,-156 47,-3 63,0 91,20 121,83 74,270 -70,285 -31,3 -54,-1 -79,-15 z" />
  <path
     style="fill:#e16d1a"
     id="p1Hvjbibj"
     d="m 17170,6753 c -31,-11 -81,-69 -91,-105 -35,-131 113,-249 221,-175 76,51 98,124 61,201 -28,57 -73,86 -132,85 -24,0 -51,-3 -59,-6 z" />
  <path
     style="fill:#e16d1a"
     id="pS0nKWnbr"
     d="m 20702,8440 c -98,-60 -96,-210 4,-267 49,-28 86,-29 141,-2 30,14 50,33 63,60 56,108 -13,229 -130,229 -27,0 -58,-8 -78,-20 z" />
  <g
     id="l1Q57lEbf6EZ9DDAHPSsdxZ"
     fill="rgb(242,203,48)"
     style="transform: none;">
    <g
       id="g383">
      <path
         id="p1G8w1tpU5"
         d="M15280 12262 c-243 -81 -425 -218 -510 -384 -57 -109 -75 -197 -74 -358 0 -135 22 -301 42 -322 12 -12 175 42 277 91 114 56 213 127 274 198 50 58 115 185 136 268 33 127 29 332 -9 480 -15 62 -24 64 -136 27z" />
      <path
         id="pOgC5kWG3"
         d="M4705 11734 c-11 -2 -46 -6 -79 -9 l-59 -7 7 -53 c10 -87 54 -224 107 -334 44 -89 63 -116 137 -191 128 -129 242 -179 460 -201 74 -8 133 -8 203 0 55 6 105 11 111 11 33 0 -31 242 -101 385 -118 240 -295 361 -571 395 -79 9 -169 11 -215 4z" />
      <path
         id="pOV6i359h"
         d="M9027 11117 c-181 -214 -270 -461 -237 -658 28 -169 113 -322 267 -479 l93 -95 31 35 c94 107 187 265 229 390 30 89 38 251 16 341 -32 136 -120 287 -247 423 -100 107 -99 107 -152 43z" />
      <path
         id="pQFd4ga9a"
         d="M2906 9560 c-32 -5 -60 -11 -62 -13 -6 -6 34 -183 56 -247 48 -139 109 -239 200 -330 133 -134 266 -187 486 -197 126 -6 260 2 284 17 29 18 -36 255 -111 400 -95 184 -238 299 -437 351 -89 24 -320 34 -416 19z" />
      <path
         id="peL7gWp5d"
         d="M14821 9173 l-34 -4 6 -74 c29 -335 173 -584 401 -695 128 -62 216 -81 399 -87 l159 -6 -6 44 c-3 24 -8 70 -11 101 -4 32 -17 98 -30 147 -86 321 -275 499 -586 555 -92 16 -245 26 -298 19z" />
      <path
         id="ppUnuQSeT"
         d="M6557 7703 c-212 -143 -356 -327 -403 -513 -24 -93 -15 -256 20 -374 28 -94 102 -253 140 -301 l22 -28 30 19 c198 124 362 317 417 489 33 106 30 286 -7 410 -26 88 -109 267 -144 313 l-18 23 -57 -38z" />
      <path
         id="p3mTespYU"
         d="M20083 7386 c-142 -33 -373 -156 -456 -244 l-28 -29 83 -85 c140 -142 283 -230 439 -269 210 -53 453 19 694 206 36 28 65 52 65 56 0 14 -112 129 -178 181 -166 132 -296 187 -457 194 -65 2 -122 -1 -162 -10z" />
      <path
         id="p16FJ9DQHY"
         d="M14795 5663 c-22 -2 -43 -8 -48 -12 -11 -11 18 -165 49 -256 113 -340 313 -501 664 -535 100 -10 282 -1 297 14 12 12 -17 159 -52 264 -55 164 -138 294 -239 374 -66 53 -191 111 -286 133 -74 17 -300 28 -385 18z" />
      <path
         id="p1FjxAOaJc"
         d="M8772 5113 c-101 -214 -134 -405 -97 -575 34 -163 152 -327 326 -455 52 -38 175 -113 185 -113 12 0 95 191 119 275 36 119 45 297 21 399 -29 124 -87 218 -206 336 -93 92 -226 191 -291 215 -12 4 -25 -15 -57 -82z" />
      <path
         id="pioE3FGmm"
         d="M12442 4883 c-33 -46 -108 -204 -130 -273 -34 -105 -43 -157 -43 -265 0 -192 62 -326 231 -496 100 -100 221 -194 243 -186 15 5 102 169 131 247 118 311 72 554 -149 788 -60 64 -165 151 -236 196 -26 17 -27 16 -47 -11z" />
      <path
         id="pRpmtc9gv"
         d="M6080 4736 c-139 -99 -254 -226 -315 -346 -85 -169 -94 -332 -28 -540 30 -96 120 -278 145 -293 13 -9 29 -3 72 26 130 86 253 212 323 332 100 169 114 359 43 579 -34 103 -130 290 -151 293 -8 2 -48 -21 -89 -51z" />
    </g>
  </g>
  <path
     style="fill:#86786d"
     id="pT0XfO6nq"
     d="m 7993,20204 c -17,-46 80,-272 185,-427 152,-224 306,-363 672,-607 469,-312 603,-468 730,-848 80,-240 107,-471 64,-557 -25,-51 -64,-79 -95,-70 -13,4 -75,58 -140,120 -159,153 -249,205 -474,270 -228,66 -365,72 -625,26 -439,-78 -484,-84 -615,-85 -128,-1 -131,-1 -210,35 -203,90 -604,349 -961,620 -192,146 -616,321 -868,359 -76,11 -146,7 -146,-8 0,-5 15,-22 33,-39 24,-24 70,-44 197,-86 183,-61 431,-164 532,-220 128,-72 262,-178 613,-485 259,-228 404,-340 500,-387 64,-32 80,-35 190,-41 103,-5 155,-2 360,26 315,42 447,44 560,6 85,-29 142,-59 270,-141 317,-204 453,-415 515,-800 11,-66 42,-322 70,-570 66,-595 102,-870 150,-1160 22,-132 46,-303 54,-380 8,-77 26,-243 40,-370 58,-531 73,-811 57,-1005 -29,-330 -108,-592 -281,-935 -155,-307 -477,-818 -634,-1007 -270,-324 -459,-483 -720,-608 -378,-181 -672,-234 -932,-166 -89,23 -336,109 -764,264 -212,77 -394,143 -405,147 -52,17 85,-58 333,-182 150,-75 270,-138 268,-141 -3,-2 -37,1 -77,8 -91,15 -192,8 -324,-24 -179,-44 -580,-158 -590,-168 -7,-7 1,-9 25,-5 19,3 114,19 210,36 251,43 398,55 585,48 166,-7 221,-15 605,-97 162,-34 221,-42 350,-47 268,-10 525,37 747,136 48,21 99,42 112,46 24,7 24,6 18,-40 -19,-138 -315,-733 -465,-934 -75,-102 -249,-273 -347,-343 -163,-115 -313,-187 -506,-243 -220,-64 -386,-77 -1149,-95 -469,-11 -742,-23 -890,-41 -339,-40 -671,-169 -867,-336 -68,-58 -160,-166 -119,-140 70,46 349,202 421,236 192,92 385,148 600,177 126,17 98,17 1210,-2 486,-9 731,10 1003,77 145,36 278,84 380,140 71,38 106,47 116,31 7,-12 -67,-200 -120,-302 -121,-235 -317,-445 -574,-615 -179,-118 -493,-276 -1017,-511 -122,-54 -220,-100 -219,-101 1,-2 96,31 211,72 114,41 212,75 218,75 24,0 -21,-232 -78,-405 -49,-147 -166,-371 -298,-568 -69,-103 -122,-189 -119,-191 10,-6 261,370 323,484 59,108 131,263 214,460 107,255 130,278 374,362 485,167 857,390 1142,685 292,303 446,578 752,1348 244,614 379,891 594,1220 203,308 285,387 404,387 62,0 110,-25 164,-84 75,-83 104,-196 126,-492 52,-688 -171,-1427 -569,-1887 -221,-257 -470,-454 -1143,-906 -428,-288 -610,-418 -695,-498 -48,-45 -47,-45 56,23 433,284 929,579 1165,693 99,48 138,58 150,39 15,-23 -136,-466 -256,-751 -81,-191 -252,-526 -372,-724 -423,-703 -994,-1307 -1648,-1744 -214,-142 -425,-258 -676,-371 -24,-11 -30,-19 -24,-29 7,-11 95,29 417,188 227,112 421,201 436,201 17,0 34,-10 47,-26 28,-35 27,-85 -4,-553 -31,-461 -29,-483 20,-161 13,91 33,244 44,340 12,102 29,201 41,236 57,167 247,437 547,776 156,177 606,626 732,731 107,90 138,108 151,87 12,-19 114,-439 149,-615 83,-412 132,-790 142,-1100 l 1,-40 10,50 c 6,28 11,154 11,280 0,189 -5,271 -27,455 -78,659 -93,931 -61,1130 75,460 375,1181 749,1799 248,410 448,779 1112,2048 41,78 79,145 83,148 5,2 5,-12 1,-32 -7,-28 -4,-45 10,-72 64,-126 222,-1059 325,-1916 47,-393 43,-407 -202,-658 -315,-322 -481,-544 -623,-832 -84,-172 -124,-286 -199,-570 -80,-301 -81,-313 -12,-138 240,612 467,1002 784,1346 124,135 285,273 300,258 17,-17 22,-421 8,-716 -47,-972 -180,-2170 -262,-2341 -30,-63 -125,-169 -249,-279 -63,-55 -128,-113 -144,-128 -25,-22 184,104 327,197 l 27,18 v -66 c 0,-160 39,-384 92,-535 32,-90 116,-266 124,-259 2,3 -3,52 -13,109 -20,129 -23,508 -4,719 33,382 102,838 255,1685 173,959 216,1266 216,1553 0,74 3,133 6,130 3,-3 12,-33 19,-65 8,-34 75,-185 155,-349 304,-620 469,-984 538,-1186 116,-337 175,-770 189,-1403 7,-294 7,-298 19,-210 89,649 59,1233 -82,1635 -77,218 -214,694 -214,743 v 21 l 15,-21 c 21,-30 213,-190 425,-354 265,-205 267,-206 90,-24 -500,513 -914,1082 -1065,1463 -106,269 -371,1517 -445,2097 -25,191 -29,379 -10,415 18,35 28,40 80,40 118,0 324,-152 625,-461 253,-259 305,-359 350,-665 36,-251 151,-808 154,-749 0,11 -19,220 -44,465 -25,245 -45,469 -45,498 v 53 l 118,-90 c 223,-168 513,-512 704,-833 90,-152 158,-297 253,-537 183,-465 330,-690 790,-1216 222,-254 321,-378 421,-530 76,-116 189,-325 220,-409 10,-27 20,-44 22,-37 5,16 -35,209 -59,278 -10,31 -17,59 -14,62 7,6 423,-132 1109,-369 270,-93 491,-168 493,-166 4,4 -356,166 -627,281 -113,48 -263,116 -335,150 -559,272 -1004,688 -1353,1265 -113,186 -176,310 -164,322 7,7 79,-12 239,-65 259,-87 485,-146 665,-176 135,-23 332,-41 418,-40 46,1 32,5 -83,25 -552,96 -1013,311 -1283,597 -84,89 -108,125 -265,391 -255,434 -499,761 -836,1122 -133,142 -158,174 -134,174 5,0 186,-79 403,-176 1203,-538 1379,-614 1562,-673 223,-73 426,-116 937,-200 527,-87 745,-156 1013,-323 159,-99 365,-283 481,-433 58,-74 60,-75 30,-15 -110,221 -339,424 -652,580 -300,149 -635,249 -1092,325 -79,14 -146,26 -148,28 -17,18 73,81 235,161 72,36 96,55 45,35 -90,-35 -405,-120 -462,-125 -84,-8 -214,14 -352,60 -57,18 -455,186 -884,371 -429,186 -847,365 -930,400 -91,38 -150,68 -150,76 0,11 29,16 130,21 500,28 892,117 1185,269 52,28 106,59 120,69 22,18 17,17 -50,-5 -203,-69 -519,-134 -753,-156 -188,-17 -584,-7 -703,19 -251,54 -436,169 -792,490 -63,56 -184,159 -270,230 -186,152 -295,259 -351,344 -74,112 -76,131 -101,703 -12,281 -29,659 -39,840 -16,319 -16,356 5,1130 24,867 27,945 49,1140 46,403 169,1136 220,1311 41,141 168,230 486,339 362,125 509,191 647,294 132,98 203,188 382,487 131,216 181,287 269,377 174,180 364,257 1056,427 154,38 309,79 345,90 158,53 458,231 703,418 92,70 187,163 187,183 0,32 -89,-10 -415,-193 -409,-231 -553,-296 -765,-348 -118,-28 -214,-44 -645,-104 -224,-32 -354,-64 -460,-115 -99,-48 -163,-104 -263,-230 -298,-376 -740,-679 -1232,-844 -247,-83 -499,-125 -597,-98 -58,16 -142,109 -192,214 -48,98 -73,175 -141,424 -73,266 -131,395 -251,555 -67,90 -214,229 -306,289 -43,28 -231,126 -418,219 -187,92 -374,190 -415,217 -93,61 -203,169 -390,383 -241,276 -326,348 -347,294 z" />
  <g
     id="l3LdS2INlKoafRct8rAEoAA"
     fill="rgb(0,0,0)"
     style="transform: none;">
    <g
       id="g599">
      <path
         id="pWbQ6f6Dm"
         d="M11251 22867 c-8 -10 -8 -50 -2 -138 12 -184 8 -387 -9 -432 -14 -38 -14 -40 10 -59 22 -18 34 -20 99 -14 41 3 114 6 163 6 80 0 89 2 86 18 -3 14 -22 19 -125 27 -67 6 -127 15 -133 21 -6 6 -13 56 -17 112 l-6 102 127 0 c126 0 127 0 124 23 -3 21 -9 22 -118 28 -63 4 -120 7 -126 8 -7 1 -13 48 -17 129 -8 161 -23 208 -56 169z" />
      <path
         id="p3Cf6NFXh"
         d="M11685 22799 c-5 -7 4 -22 23 -38 19 -16 60 -82 107 -173 96 -186 129 -272 121 -317 -6 -40 7 -61 40 -61 19 0 34 22 100 152 89 177 150 283 205 355 21 29 39 55 39 58 0 8 -84 6 -98 -3 -7 -5 -27 -40 -46 -78 -18 -38 -40 -75 -49 -82 -20 -17 -216 -29 -243 -14 -10 5 -37 50 -58 99 -22 48 -42 91 -45 94 -13 14 -89 21 -96 8z m365 -349 c-29 -55 -55 -100 -58 -100 -7 0 -92 178 -92 193 0 4 45 7 100 7 l101 0 -51 -100z" />
      <path
         id="p12imQx4tm"
         d="M12503 22784 c-10 -4 -9 -13 3 -36 14 -27 15 -51 6 -192 -13 -198 -28 -277 -54 -284 -10 -2 -18 -10 -18 -18 0 -16 34 -35 110 -59 48 -16 62 -17 114 -6 102 21 152 56 192 131 15 28 19 57 19 155 0 115 -1 123 -30 175 -27 49 -38 59 -108 95 -67 34 -90 40 -150 42 -40 1 -78 0 -84 -3z m207 -69 c69 -36 100 -103 100 -217 0 -103 -12 -149 -52 -194 -56 -64 -127 -88 -184 -62 -25 12 -26 15 -21 73 4 33 11 134 18 225 6 91 16 173 21 183 8 15 17 17 51 12 23 -4 53 -13 67 -20z" />
      <path
         id="pcaGD8IBs"
         d="M10563 22721 c-13 -30 -50 -65 -148 -143 -71 -56 -163 -135 -204 -175 -41 -40 -76 -71 -77 -70 -1 1 -16 64 -33 139 -42 188 -59 219 -105 185 -17 -13 -17 -16 7 -63 40 -79 71 -193 71 -264 1 -61 -2 -71 -43 -133 -48 -75 -54 -94 -29 -110 22 -15 30 -7 152 142 57 70 138 161 182 205 82 82 234 206 252 206 14 0 27 -66 47 -233 13 -110 14 -144 5 -173 -14 -43 -5 -54 48 -54 42 0 47 14 28 86 -24 95 -47 242 -55 352 -8 107 -15 124 -58 136 -18 6 -25 1 -40 -33z" />
      <path
         id="pXcoeCgM"
         d="M13201 22736 c-14 -17 -24 -73 -51 -286 -16 -123 -28 -184 -41 -206 l-19 -32 26 -32 c19 -22 34 -30 52 -28 25 3 25 5 28 90 2 47 13 164 24 258 11 95 20 187 20 205 0 36 -21 52 -39 31z" />
      <path
         id="pDShZbLUD"
         d="M13548 22668 c-3 -7 0 -37 5 -68 11 -70 2 -202 -19 -263 -12 -35 -30 -59 -67 -90 -92 -77 -100 -86 -87 -102 22 -27 50 -16 178 67 189 122 412 230 547 264 l26 6 -7 -53 c-15 -126 -64 -333 -84 -354 -11 -12 -20 -27 -20 -34 0 -14 67 -44 85 -38 7 3 15 36 18 82 9 105 42 295 67 379 20 72 17 95 -18 115 -13 8 -24 3 -48 -20 -22 -22 -78 -47 -195 -90 -90 -32 -204 -79 -253 -103 l-88 -44 5 36 c19 123 28 281 18 301 -13 23 -57 29 -63 9z" />
      <path
         id="ph0hxBgf"
         d="M9500 22530 c-75 -14 -117 -48 -151 -125 -17 -39 -21 -61 -17 -116 12 -156 126 -279 260 -279 81 0 167 62 187 135 21 76 8 185 -32 260 -17 34 -71 87 -104 104 -34 18 -104 28 -143 21z m139 -77 c63 -47 103 -181 81 -272 -14 -59 -60 -106 -114 -116 -82 -16 -173 64 -197 171 -22 96 17 199 85 230 40 18 111 12 145 -13z" />
      <path
         id="pwcsZg0FR"
         d="M14840 22451 c-6 -16 -20 -37 -29 -45 -16 -15 -22 -14 -67 6 -34 15 -69 22 -115 23 -56 0 -73 -4 -114 -30 -72 -45 -107 -114 -113 -220 -9 -175 74 -286 247 -331 71 -18 111 -9 111 25 0 34 -26 46 -69 31 -54 -17 -89 -6 -136 44 -100 104 -112 314 -24 404 27 27 38 32 80 32 59 0 96 -13 132 -48 23 -22 27 -34 27 -78 0 -39 4 -53 17 -58 9 -4 20 -3 23 1 10 11 80 237 80 257 0 28 -37 18 -50 -13z" />
      <path
         id="p3CruWhse"
         d="M8683 22359 c-45 -13 -83 -62 -83 -107 0 -20 14 -71 31 -112 29 -71 89 -270 89 -295 0 -7 -32 -21 -72 -31 -80 -22 -105 -46 -74 -69 16 -12 29 -10 100 15 44 16 133 43 196 60 63 17 119 35 124 40 5 5 -2 14 -17 21 -26 12 -58 8 -154 -17 -20 -5 -26 1 -44 42 -38 90 -109 306 -109 334 0 32 49 80 81 80 28 0 23 29 -7 40 -14 6 -26 10 -27 9 -1 0 -16 -5 -34 -10z" />
      <path
         id="p7ZOUfyIz"
         d="M15391 22227 c-7 -10 -8 -24 -1 -48 12 -40 15 -211 4 -254 -18 -75 -59 -128 -142 -181 -44 -29 -52 -37 -42 -49 32 -38 55 -31 203 66 151 99 313 169 394 169 46 0 81 -20 130 -73 83 -90 133 -225 133 -359 0 -71 2 -78 20 -78 23 0 35 20 45 75 4 22 20 82 36 132 26 80 37 101 86 154 l56 60 -25 26 c-14 14 -30 23 -36 19 -6 -3 -38 -56 -72 -117 l-63 -110 -39 73 c-56 102 -104 163 -163 203 -98 67 -171 64 -349 -16 -60 -27 -112 -49 -116 -49 -3 0 0 78 7 173 12 159 12 173 -4 185 -22 16 -48 15 -62 -1z" />
      <path
         id="p1018qII2"
         d="M8170 22143 c0 -10 15 -66 34 -126 19 -59 31 -109 27 -111 -9 -5 -191 -62 -223 -70 -32 -7 -35 -3 -78 116 -31 85 -51 111 -76 101 -21 -8 -18 -23 35 -155 27 -68 63 -164 80 -214 27 -80 29 -94 18 -123 -10 -27 -9 -33 3 -41 27 -17 56 -11 84 19 l28 29 -20 29 c-30 41 -76 163 -66 173 7 6 228 90 239 90 4 0 40 -94 58 -150 14 -48 33 -58 83 -46 29 8 31 27 4 51 -16 14 -80 150 -80 169 0 3 6 6 14 6 8 0 18 5 21 10 10 16 -16 41 -35 35 -15 -5 -25 11 -56 92 -38 101 -58 133 -81 133 -7 0 -13 -8 -13 -17z" />
      <path
         id="psCY4dTVc"
         d="M7508 22003 c-1 -5 -2 -32 -2 -62 l-1 -53 -63 -22 c-125 -42 -178 -116 -170 -235 6 -81 33 -137 97 -201 90 -90 226 -114 346 -61 82 36 121 89 79 105 -31 12 -45 6 -65 -28 -34 -58 -100 -70 -193 -35 -74 27 -148 95 -185 171 -35 70 -39 120 -13 163 23 37 97 75 147 75 32 0 44 -7 80 -45 35 -39 43 -43 58 -33 16 12 14 22 -27 123 -24 61 -46 118 -49 128 -6 17 -35 24 -39 10z" />
      <path
         id="pqIBUf45b"
         d="M16565 21706 c-62 -27 -128 -124 -170 -251 -23 -66 -26 -92 -23 -152 6 -86 34 -132 103 -165 67 -33 107 -4 43 30 -18 9 -45 29 -60 44 -25 23 -28 33 -27 85 1 57 27 153 42 153 4 0 44 -18 88 -41 45 -22 83 -38 85 -36 3 2 0 16 -5 30 -7 17 -33 37 -80 62 l-70 37 14 29 c22 42 74 98 106 115 37 19 93 18 146 -2 84 -33 67 18 -18 53 -61 25 -129 29 -174 9z" />
      <path
         id="pOtsS6O7W"
         d="M6893 21633 c3 -16 49 -118 101 -227 53 -110 96 -212 96 -227 0 -32 23 -49 68 -49 47 0 58 23 30 60 -13 17 -75 128 -138 248 -96 181 -119 218 -139 220 -21 3 -23 1 -18 -25z" />
      <path
         id="pSzqY6Kjg"
         d="M16987 21544 c-3 -4 -4 -25 -1 -48 4 -23 1 -74 -5 -112 -25 -164 -68 -232 -173 -279 -87 -38 -92 -44 -72 -66 26 -29 53 -24 186 35 158 70 274 105 370 113 66 5 80 3 110 -15 39 -24 66 -59 100 -127 51 -102 64 -212 44 -347 -9 -57 -8 -58 16 -58 21 0 28 10 52 73 56 144 118 231 206 288 24 16 24 17 7 42 -10 15 -24 27 -32 27 -8 0 -49 -43 -91 -95 -42 -52 -79 -95 -83 -95 -3 0 -17 35 -31 77 -32 98 -93 198 -148 240 -83 63 -158 66 -341 13 -58 -16 -106 -28 -108 -26 -2 2 15 79 37 171 43 181 43 195 -10 195 -14 0 -30 -3 -33 -6z" />
      <path
         id="pv0Tl3ffy"
         d="M6664 21509 c-22 -24 -167 -105 -207 -114 -40 -10 -47 -50 -14 -81 46 -42 217 -365 217 -410 0 -27 15 -39 57 -47 35 -7 69 15 56 36 -5 7 -25 37 -45 68 -20 31 -62 103 -93 159 -31 57 -74 129 -95 160 -22 32 -41 63 -42 68 -3 12 194 112 222 112 32 0 35 22 6 47 -33 28 -38 28 -62 2z" />
      <path
         id="pvT1BWHsk"
         d="M5951 21082 l-34 -28 12 -65 c16 -96 14 -125 -11 -150 -34 -32 -119 -94 -154 -112 -30 -16 -32 -15 -110 33 -107 67 -103 66 -143 44 -47 -25 -47 -48 -1 -51 23 -1 90 -31 195 -88 221 -121 268 -155 277 -200 4 -25 50 -32 67 -11 11 13 9 42 -8 158 -29 193 -44 382 -36 446 8 62 -3 67 -54 24z m17 -399 c6 -58 10 -108 8 -110 -4 -5 -154 84 -175 102 -11 11 0 22 60 63 41 28 79 51 84 51 6 1 16 -45 23 -106z" />
      <path
         id="pkLitJWEZ"
         d="M17995 20787 c-115 -55 -191 -206 -164 -325 32 -148 179 -221 300 -150 140 82 206 272 136 391 -58 98 -169 133 -272 84z m176 -68 c59 -29 85 -91 69 -159 -15 -64 -80 -153 -133 -184 -43 -25 -60 -29 -111 -27 -40 1 -102 66 -112 116 -16 86 38 190 126 243 63 38 104 41 161 11z" />
      <path
         id="pVQ5dUbFa"
         d="M5055 20570 c-3 -6 4 -31 17 -56 l23 -46 -22 -17 c-12 -9 -43 -29 -68 -44 -162 -101 -120 -333 80 -440 32 -18 57 -22 130 -22 107 0 163 22 233 92 53 53 55 86 5 91 -30 3 -33 0 -43 -37 -17 -63 -57 -86 -150 -85 -84 1 -146 23 -212 75 -47 38 -98 123 -98 165 0 41 37 94 85 121 55 31 94 29 140 -7 29 -23 41 -28 51 -19 21 17 18 28 -29 88 -24 31 -58 77 -76 104 -31 45 -53 58 -66 37z" />
      <path
         id="p13nT6TtSx"
         d="M18574 20463 c-14 -43 -25 -63 -81 -138 -97 -131 -180 -223 -200 -221 -63 5 20 -169 99 -210 58 -30 131 3 168 77 25 48 25 102 0 158 -23 49 -24 55 -10 46 5 -3 58 1 117 9 60 9 134 18 166 21 55 6 57 8 57 35 0 39 -23 44 -112 26 -138 -28 -248 -40 -260 -28 -8 8 10 37 66 106 42 52 76 100 76 105 0 29 -77 41 -86 14z m-68 -309 c42 -101 -18 -221 -100 -200 -23 6 -56 50 -56 75 0 19 121 172 131 165 6 -3 17 -21 25 -40z" />
      <path
         id="pcPoH6lOQ"
         d="M19014 20058 c-38 -40 -112 -121 -164 -180 -51 -60 -99 -108 -106 -108 -46 0 -51 -93 -6 -113 20 -9 26 -9 30 1 7 21 85 121 216 275 86 102 126 156 126 173 0 40 -23 28 -96 -48z" />
      <path
         id="p15i9AqfRV"
         d="M4553 20059 c-7 -7 -8 -21 -3 -39 10 -33 7 -44 -54 -254 -26 -88 -52 -194 -58 -235 -6 -42 -13 -78 -14 -79 -1 -2 -53 42 -115 98 -118 107 -152 128 -175 109 -28 -23 -15 -46 51 -85 88 -51 178 -134 204 -187 15 -30 21 -63 21 -108 0 -82 8 -109 30 -109 33 0 41 27 50 171 16 228 62 476 112 598 l13 34 34 -29 c57 -47 241 -263 241 -282 0 -36 15 -46 49 -32 62 25 58 34 -78 169 -70 69 -153 159 -184 199 -47 58 -63 72 -85 72 -16 0 -33 -5 -39 -11z" />
      <path
         id="p1514fjNQN"
         d="M19234 19810 c-104 -59 -220 -222 -231 -325 -10 -81 51 -185 108 -185 28 0 23 18 -16 61 -19 21 -37 50 -41 63 -8 34 20 112 61 168 l34 47 67 -70 c37 -38 71 -69 76 -69 4 0 8 12 8 26 0 17 -18 44 -57 85 l-56 59 29 31 c40 43 97 70 148 71 46 1 74 -11 119 -48 61 -51 66 -4 6 51 -82 74 -168 86 -255 35z" />
      <path
         id="pM6003cn3"
         d="M19634 19555 c-19 -15 -19 -16 0 -28 80 -52 95 -90 51 -131 -13 -12 -68 -37 -122 -56 -54 -18 -121 -44 -150 -57 -47 -22 -54 -29 -72 -79 -12 -31 -21 -79 -21 -110 0 -50 3 -59 34 -90 19 -19 41 -34 50 -34 26 0 31 29 9 53 -52 56 -57 112 -15 156 16 17 62 42 112 61 166 65 231 112 246 178 3 15 7 32 9 39 8 25 -18 73 -50 93 -39 24 -55 25 -81 5z" />
      <path
         id="p1HJANHqT3"
         d="M3860 19388 c0 -16 51 -72 170 -188 94 -91 170 -172 170 -181 0 -29 26 -41 69 -34 51 8 66 41 30 65 -32 20 -150 124 -287 254 -113 106 -152 128 -152 84z" />
      <path
         id="p1Hoy6eYKH"
         d="M3616 19127 c-16 -12 -17 -18 -6 -53 10 -33 8 -61 -15 -188 -14 -81 -31 -202 -38 -268 l-12 -119 -84 62 c-171 125 -222 145 -229 88 -3 -23 3 -28 52 -47 31 -12 80 -37 109 -55 123 -79 159 -129 172 -242 4 -33 11 -65 16 -71 12 -15 46 -7 53 12 3 8 1 92 -4 185 -7 114 -6 211 0 292 11 127 38 297 49 309 16 18 297 -227 313 -274 6 -16 17 -28 27 -28 19 0 61 39 61 56 0 6 -49 47 -108 91 -60 45 -152 122 -205 172 -97 91 -118 102 -151 78z" />
      <path
         id="prqofjkxr"
         d="M20059 19123 c-1 -5 0 -22 1 -39 1 -35 -112 -325 -164 -419 -19 -34 -44 -66 -59 -73 -20 -10 -27 -21 -27 -41 0 -17 7 -31 15 -35 9 -3 84 12 168 34 179 46 361 80 429 80 57 0 62 13 20 53 -34 33 -36 33 -141 5 l-84 -22 -84 87 c-45 49 -83 96 -83 105 0 9 18 58 41 109 l41 92 -22 35 c-19 32 -48 48 -51 29z m35 -394 c32 -38 57 -72 55 -74 -7 -6 -212 -55 -216 -52 -6 7 82 197 92 196 5 0 36 -32 69 -70z" />
      <path
         id="pBI1TiXuT"
         d="M20550 18428 c-49 -66 -131 -138 -193 -170 -33 -17 -55 -19 -136 -16 -92 3 -96 2 -99 -19 -4 -30 15 -38 148 -63 231 -43 384 -89 548 -166 l77 -36 -44 -39 c-69 -62 -265 -190 -302 -198 -30 -6 -34 -11 -32 -36 1 -16 11 -37 22 -48 19 -19 20 -19 68 25 65 61 250 199 319 238 63 37 82 66 64 99 -9 18 -17 21 -39 16 -31 -7 -55 2 -256 90 -71 31 -164 67 -207 79 -43 12 -80 25 -83 27 -2 3 47 49 111 103 122 103 146 135 124 161 -22 27 -44 16 -90 -47z" />
      <path
         id="p4J2GEUig"
         d="M2995 18379 c-10 -16 27 -51 160 -152 173 -131 216 -167 226 -194 9 -25 30 -29 78 -12 52 18 41 47 -37 96 -38 23 -139 94 -226 158 -151 110 -187 128 -201 104z" />
      <path
         id="pKPnmLiVn"
         d="M2797 18053 c-14 -14 -4 -24 93 -98 l100 -76 -31 -45 c-46 -68 -128 -164 -140 -164 -5 0 -50 27 -100 61 -63 42 -96 58 -109 54 -45 -14 -17 -42 175 -167 170 -112 195 -131 203 -160 4 -18 15 -34 24 -36 23 -4 57 30 64 65 6 30 4 33 -32 48 -48 20 -154 87 -154 98 0 11 139 217 146 217 4 0 42 -25 85 -55 43 -30 84 -55 92 -55 16 0 57 41 57 57 0 6 -12 14 -27 18 -16 3 -60 25 -100 47 -61 35 -71 44 -63 59 16 29 12 39 -15 39 -14 0 -25 -4 -25 -10 0 -19 -19 -10 -111 50 -86 57 -117 69 -132 53z" />
      <path
         id="p12J9yMANF"
         d="M21135 17689 c-8 -25 -221 -168 -324 -217 -63 -30 -76 -34 -93 -23 -39 24 -44 -2 -19 -87 17 -60 31 -86 64 -120 84 -87 184 -114 274 -72 93 42 180 116 214 182 38 75 15 227 -49 311 -39 51 -57 58 -67 26z m76 -144 c24 -52 24 -89 -2 -142 -45 -93 -198 -190 -287 -181 -63 6 -120 35 -143 72 -32 52 -26 67 49 112 37 23 127 78 201 123 149 90 149 90 182 16z" />
      <path
         id="p16NrVAw4r"
         d="M2400 17473 c-51 -20 -87 -105 -60 -138 21 -25 38 -17 52 27 17 56 56 80 95 58 14 -8 64 -69 109 -135 111 -159 108 -158 216 -153 100 4 135 22 154 79 24 70 -6 78 -58 15 -22 -26 -48 -46 -65 -49 -53 -10 -84 14 -178 138 -59 78 -102 125 -125 137 -39 19 -116 31 -140 21z" />
      <path
         id="pwGg5aise"
         d="M21619 16847 c-13 -29 -238 -153 -348 -191 -69 -25 -75 -26 -92 -10 -17 16 -19 16 -25 0 -7 -18 0 -77 17 -140 13 -46 88 -130 144 -159 62 -33 134 -28 219 14 85 42 163 110 187 164 35 76 18 209 -37 293 -38 58 -49 63 -65 29z m64 -142 c39 -106 -15 -201 -158 -271 -67 -33 -80 -36 -138 -32 -97 6 -167 61 -167 131 0 19 31 38 203 124 111 56 211 101 222 100 13 -1 25 -17 38 -52z" />
      <path
         id="pw1auTWDt"
         d="M21760 16176 c-188 -66 -295 -169 -294 -281 1 -53 25 -112 50 -122 26 -10 28 6 10 61 -29 85 -7 130 97 197 l60 39 32 -81 c40 -98 51 -112 64 -78 6 18 2 43 -19 100 l-28 77 26 12 c36 16 113 24 156 16 40 -8 97 -60 116 -106 7 -17 19 -30 28 -30 24 0 8 66 -32 125 -61 93 -144 115 -266 71z" />
      <path
         id="ppU6m61Yz"
         d="M21960 15719 c-103 -20 -199 -87 -245 -170 -27 -49 -30 -63 -30 -144 0 -70 5 -99 20 -129 25 -49 48 -65 73 -50 21 14 29 64 9 64 -24 0 -56 44 -63 87 -10 65 17 132 77 188 66 61 119 85 195 85 86 0 141 -30 173 -95 25 -48 25 -49 9 -124 -16 -78 -11 -104 17 -81 27 22 45 104 35 164 -12 76 -32 117 -75 154 -57 51 -117 66 -195 51z" />
      <path
         id="po9wRBLkB"
         d="M22290 15156 c-32 -30 -364 -126 -437 -126 -41 0 -45 -2 -59 -36 -18 -42 -10 -79 14 -70 209 69 409 138 450 155 29 12 56 21 61 21 11 0 61 -191 61 -234 0 -41 15 -46 51 -17 l24 19 -19 38 c-28 58 -66 185 -66 220 0 43 -48 61 -80 30z" />
      <path
         id="prpsNe6dv"
         d="M22275 14595 c-147 -38 -221 -53 -245 -49 -33 5 -37 3 -53 -31 -17 -35 -15 -75 2 -75 5 0 55 15 112 34 57 19 175 53 262 76 169 46 194 58 184 84 -9 24 -31 20 -262 -39z" />
      <path
         id="pdFcdzwME"
         d="M22535 14270 c-61 -35 -182 -76 -250 -85 -47 -6 -57 -4 -138 39 -48 25 -89 46 -92 46 -2 0 -9 -9 -15 -21 -15 -28 -8 -35 127 -132 169 -120 295 -229 384 -331 43 -49 79 -93 79 -97 0 -8 -154 -44 -278 -64 -74 -12 -110 -14 -131 -7 -36 13 -51 0 -51 -43 0 -50 13 -55 83 -33 91 28 312 76 390 84 52 5 71 11 82 27 24 35 18 54 -20 67 -24 8 -67 48 -151 141 -116 129 -239 249 -255 249 -5 0 -9 4 -9 10 0 5 26 17 58 25 138 38 252 78 263 91 9 11 9 21 1 39 -14 31 -16 31 -77 -5z" />
      <path
         id="p18laDQ6Xf"
         d="M22680 13339 c-327 -44 -355 -46 -384 -36 -26 9 -32 7 -53 -17 -25 -30 -31 -74 -10 -82 7 -2 39 2 71 10 32 9 149 29 260 46 212 32 246 41 246 64 0 27 -22 29 -130 15z" />
      <path
         id="pznL2D0rs"
         d="M22262 13008 c-7 -7 -12 -17 -12 -24 0 -6 53 -60 118 -120 119 -109 204 -198 278 -289 51 -62 139 -194 133 -199 -8 -8 -204 -26 -299 -27 -62 -2 -104 2 -119 11 -21 11 -26 10 -38 -6 -8 -11 -13 -32 -11 -49 4 -36 2 -36 198 -12 74 9 181 17 238 17 89 0 105 3 122 20 29 29 25 54 -13 72 -24 12 -59 53 -123 145 -49 70 -123 169 -165 219 l-76 91 121 18 c199 29 241 48 215 97 -7 13 -16 17 -27 13 -133 -57 -281 -84 -348 -66 -22 6 -67 31 -100 56 -63 48 -74 51 -92 33z" />
      <path
         id="phlnyTt9b"
         d="M22550 12036 c-99 -29 -161 -75 -198 -149 -48 -95 -53 -241 -9 -272 19 -13 23 -13 39 2 23 21 23 34 -4 68 -80 102 84 281 269 293 119 8 174 -31 181 -127 7 -96 -27 -143 -108 -153 -19 -2 -25 -9 -25 -28 l0 -25 143 -3 c132 -2 143 -1 140 15 -2 10 -17 22 -33 27 -79 23 -75 17 -68 105 5 73 4 85 -20 133 -53 107 -175 152 -307 114z" />
      <path
         id="pTSUqkGUU"
         d="M22461 11078 c-98 -37 -165 -130 -186 -256 -13 -78 27 -128 69 -86 20 20 20 33 -1 56 -38 42 -1 149 66 194 121 80 285 68 364 -25 60 -72 56 -140 -13 -232 -44 -58 -41 -83 7 -58 65 35 115 174 92 263 -16 63 -76 130 -136 150 -68 23 -194 20 -262 -6z" />
      <path
         id="pPa0BSvno"
         d="M22256 10487 c-61 -79 -82 -170 -50 -216 20 -28 88 -61 129 -61 54 0 112 35 144 87 17 26 31 42 31 35 0 -8 24 -42 54 -78 30 -35 76 -93 102 -129 36 -51 51 -65 68 -63 15 2 22 11 24 32 3 22 -5 38 -36 70 -107 112 -184 218 -169 232 3 3 58 -1 122 -10 64 -9 121 -16 126 -16 12 0 11 61 0 79 -8 12 -15 13 -34 4 -49 -23 -447 29 -447 57 0 22 -41 8 -64 -23z m227 -76 c38 -4 -55 -114 -108 -127 -34 -8 -84 2 -107 23 -35 31 -17 100 30 114 10 3 111 -2 185 -10z" />
      <path
         id="pMWKhfPzW"
         d="M22700 9947 c-17 -16 -78 -40 -182 -71 -212 -63 -292 -78 -342 -64 -34 11 -40 10 -52 -7 -8 -10 -14 -21 -14 -24 1 -15 36 -45 163 -140 77 -57 183 -146 238 -198 54 -52 103 -92 109 -88 5 3 10 26 10 50 0 43 -1 45 -75 100 -74 54 -75 56 -75 99 0 62 27 198 42 211 7 7 57 22 110 36 90 21 98 25 108 53 23 66 5 85 -40 43z m-240 -159 c0 -20 -30 -171 -35 -176 -7 -7 -174 122 -172 132 3 8 155 53 190 55 9 1 17 -5 17 -11z" />
      <path
         id="p2yykUtfT"
         d="M22048 9305 c-17 -10 -29 -26 -33 -47 -3 -18 -22 -88 -42 -156 -20 -67 -33 -126 -29 -129 17 -17 42 21 78 118 22 57 43 108 48 112 8 9 89 -5 171 -29 l48 -14 -20 -70 c-10 -38 -26 -87 -35 -110 -17 -43 -14 -70 10 -70 9 0 27 38 51 105 21 57 43 111 49 120 10 13 24 11 121 -15 61 -16 127 -30 148 -30 34 0 38 3 35 22 -3 19 -19 26 -133 54 -71 18 -150 39 -175 47 -25 9 -79 26 -120 38 -41 12 -88 32 -103 45 -33 28 -33 28 -69 9z" />
      <path
         id="plN5FR8XM"
         d="M21933 8868 c-6 -7 -18 -47 -28 -88 -10 -41 -35 -124 -56 -184 -43 -120 -46 -136 -26 -136 23 0 46 34 68 98 25 75 24 75 189 32 170 -43 221 -63 244 -93 17 -24 19 -32 9 -68 -9 -34 -8 -41 5 -46 9 -4 24 4 39 21 30 35 31 96 2 142 -22 36 -25 37 -184 75 -49 12 -127 35 -172 51 l-81 29 25 81 c20 66 22 82 11 89 -19 12 -34 11 -45 -3z" />
      <path
         id="p12Zdlf5my"
         d="M21761 8274 c-72 -19 -108 -47 -122 -94 -23 -78 18 -97 52 -25 22 48 60 75 102 75 29 0 61 -23 168 -119 120 -108 182 -130 267 -95 44 17 62 47 62 103 0 30 -5 40 -24 49 -31 14 -36 8 -36 -40 0 -67 -55 -98 -110 -61 -14 9 -68 58 -121 109 -122 119 -137 125 -238 98z" />
    </g>
  </g>
  <path
     style="fill:#5391da"
     id="p1HaPvRxzI"
     d="m 12935,12011 c -162,-56 -302,-140 -401,-239 -71,-72 -116,-145 -152,-244 -25,-69 -27,-84 -27,-248 0,-150 4,-188 23,-267 13,-51 27,-95 30,-97 13,-8 155,43 246,89 231,116 364,274 411,489 23,105 16,322 -15,446 -11,47 -24,88 -28,92 -4,3 -43,-6 -87,-21 z" />
  <path
     style="fill:#5391da"
     id="p1DlnZOuPK"
     d="m 5950,11863 c -19,-3 -38,-8 -43,-12 -22,-22 48,-262 116,-396 91,-179 242,-303 423,-349 111,-29 252,-39 370,-27 60,6 111,14 115,19 12,12 -30,190 -67,286 -103,267 -271,418 -526,470 -73,15 -293,20 -388,9 z" />
  <path
     style="fill:#5391da"
     id="pcqQ9Xo4l"
     d="m 5066,10449 c -106,-118 -203,-294 -237,-429 -22,-89 -18,-232 10,-320 46,-147 120,-267 245,-398 l 81,-84 38,43 c 107,122 197,276 238,409 33,105 33,254 1,360 -27,87 -86,202 -145,280 -45,61 -166,190 -178,190 -4,0 -28,-23 -53,-51 z" />
  <path
     style="fill:#5391da"
     id="p1895zMzZP"
     d="m 16205,10033 c -185,-39 -349,-170 -475,-379 -51,-83 -90,-166 -90,-189 0,-19 139,-70 261,-95 133,-28 311,-24 402,9 198,70 348,216 467,454 60,119 64,111 -74,156 -178,59 -350,75 -491,44 z" />
  <path
     style="fill:#5391da"
     id="pPBB7dAi4"
     d="m 19785,9839 c -78,-11 -217,-51 -288,-83 l -57,-25 20,-46 c 58,-136 182,-304 283,-383 87,-68 120,-86 212,-118 70,-24 95,-27 205,-27 94,-1 146,5 210,20 94,24 257,81 265,92 9,16 -87,189 -153,276 -183,242 -407,336 -697,294 z" />
  <path
     style="fill:#5391da"
     id="pEToVAhT5"
     d="m 10121,9275 c -216,-117 -375,-282 -431,-450 -55,-166 -37,-400 46,-605 44,-110 36,-104 107,-69 175,88 342,230 415,356 82,138 108,299 78,473 -25,144 -94,340 -120,340 -6,0 -49,-21 -95,-45 z" />
  <path
     style="fill:#5391da"
     id="pOn0f4QsV"
     d="m 5744,8755 c -167,-49 -306,-127 -417,-234 -81,-78 -125,-148 -164,-256 -26,-76 -28,-89 -28,-255 0,-135 4,-193 18,-252 10,-43 22,-80 27,-83 4,-3 50,9 101,25 476,156 664,472 573,963 -24,126 -16,119 -110,92 z" />
  <path
     style="fill:#5391da"
     id="p12zvaXsZa"
     d="m 12566,8053 c -143,-286 -152,-557 -24,-770 67,-112 222,-258 365,-341 38,-23 54,-28 61,-19 23,29 76,147 107,240 104,311 53,546 -165,767 -81,82 -255,210 -286,210 -7,0 -33,-39 -58,-87 z" />
  <path
     style="fill:#5391da"
     id="pL8ZeKMOH"
     d="m 14286,7894 c -78,-17 -254,-78 -270,-94 -16,-16 69,-176 150,-283 189,-251 431,-341 745,-277 92,19 245,68 279,90 13,8 8,24 -32,102 -125,246 -314,417 -510,463 -80,19 -271,18 -362,-1 z" />
  <path
     style="fill:#5391da"
     id="p1FjaAkmrf"
     d="m 17886,6622 c -81,-244 -75,-503 16,-675 41,-78 161,-204 248,-262 84,-56 247,-135 284,-138 26,-2 30,3 48,53 55,160 73,381 43,525 -49,232 -251,432 -562,554 l -52,20 z" />
  <path
     style="fill:#5391da"
     id="pR0vJQbTy"
     d="m 9032,6565 c -364,-174 -523,-425 -491,-774 14,-147 69,-341 98,-341 34,0 240,110 320,170 139,105 227,230 267,380 22,84 22,276 0,380 -27,126 -65,230 -84,230 -9,0 -59,-20 -110,-45 z" />
  <path
     style="fill:#5391da"
     id="pOlY3arT3"
     d="m 7677,6048 c -125,-169 -197,-372 -197,-552 0,-154 41,-272 140,-406 55,-74 182,-199 249,-245 l 43,-29 28,34 c 37,45 113,188 146,276 32,85 54,197 54,272 -1,226 -149,470 -397,652 l -42,31 z" />
  <path
     style="fill:#5391da"
     id="pS9qlKy5m"
     d="m 5190,5514 c -236,-36 -369,-93 -486,-210 -115,-114 -196,-297 -222,-505 -5,-41 -9,-89 -8,-108 l 1,-34 72,-4 c 151,-9 331,26 468,92 168,81 277,209 345,405 29,86 60,247 60,315 v 55 l -102,-1 c -57,-1 -114,-3 -128,-5 z" />
  <path
     style="fill:#5391da"
     id="p12Yx35SBW"
     d="m 11092,5302 c -130,-133 -220,-280 -258,-424 -22,-82 -21,-223 1,-308 35,-136 152,-344 243,-433 l 39,-38 82,86 c 313,326 353,661 121,1013 -31,48 -77,109 -102,137 l -45,49 z" />
  <path
     style="fill:#5391da"
     id="pBozJbez4"
     d="m 13360,3865 c -33,-87 -60,-250 -60,-364 0,-254 109,-452 328,-598 81,-54 219,-120 294,-141 l 38,-10 15,50 c 52,177 66,410 31,537 -53,194 -199,358 -416,466 -76,38 -192,85 -210,85 -6,0 -15,-11 -20,-25 z" />
  <g
     id="l3F2tzJnXrv9ZngFAMV4NM6"
     fill="rgb(219,0,0)"
     style="transform: none;">
    <g
       id="g549">
      <path
         id="pxV789nf7"
         d="M14251 10939 c-107 -13 -214 -45 -296 -87 -84 -43 -203 -159 -254 -245 -64 -108 -113 -264 -136 -429 l-6 -47 36 -7 c20 -3 100 -4 178 -1 404 14 632 190 741 568 28 98 49 230 38 241 -12 12 -222 17 -301 7z" />
      <path
         id="pBd5wkPbS"
         d="M18068 10580 c-231 -39 -425 -205 -566 -485 -22 -44 -38 -83 -36 -86 2 -4 37 -20 76 -35 269 -102 498 -107 687 -13 145 72 294 235 390 426 17 34 31 69 31 77 0 9 -30 26 -77 44 -181 70 -363 96 -505 72z" />
      <path
         id="p10SySxTCl"
         d="M3863 10233 c-53 -165 -68 -368 -38 -508 19 -90 70 -195 128 -266 88 -107 258 -222 414 -279 99 -35 90 -43 130 117 34 138 39 347 9 453 -62 227 -245 403 -541 520 -41 16 -77 30 -78 30 -2 0 -13 -30 -24 -67z" />
      <path
         id="pTyPGwGKe"
         d="M5980 10199 c-41 -6 -76 -12 -77 -13 -8 -8 33 -181 62 -262 108 -303 289 -459 588 -505 74 -12 327 -7 360 6 23 10 22 43 -7 157 -69 270 -197 450 -387 541 -52 25 -126 52 -166 61 -92 20 -277 28 -373 15z" />
      <path
         id="p18Ko0LeQ2"
         d="M11430 8756 c-100 -18 -160 -35 -160 -45 0 -24 56 -176 93 -251 101 -206 242 -339 422 -396 141 -45 385 -43 558 7 36 10 38 12 31 42 -14 67 -66 197 -109 272 -111 195 -231 299 -410 355 -88 28 -310 36 -425 16z" />
      <path
         id="pszni2m5i"
         d="M18435 8283 c-22 -2 -87 -13 -144 -25 l-103 -21 5 -31 c10 -60 68 -204 115 -285 115 -198 241 -302 430 -353 133 -36 416 -24 537 22 l24 9 -15 53 c-47 158 -129 313 -220 416 -146 163 -365 238 -629 215z" />
      <path
         id="p1FgePLrLh"
         d="M3278 8112 c-122 -63 -189 -112 -283 -206 -197 -198 -246 -418 -165 -730 22 -82 67 -203 79 -211 12 -7 127 51 220 111 100 65 222 185 269 265 116 197 119 440 11 727 -18 45 -38 82 -45 82 -7 0 -46 -17 -86 -38z" />
      <path
         id="p1NsMSuUf"
         d="M7915 7858 c-220 -29 -446 -134 -559 -259 -102 -113 -153 -243 -176 -449 -10 -93 -4 -257 11 -281 11 -18 203 21 319 64 125 47 194 91 280 177 121 120 178 253 200 465 10 95 5 258 -9 280 -4 7 -27 8 -66 3z" />
      <path
         id="pSJ6Io0ae"
         d="M15858 7481 c-227 -50 -377 -179 -494 -425 -44 -94 -98 -275 -85 -288 18 -19 219 -40 331 -34 308 15 509 149 640 428 36 77 83 220 91 278 4 22 -1 26 -51 38 -30 7 -120 15 -200 17 -118 4 -161 1 -232 -14z" />
      <path
         id="ppxf9q07N"
         d="M10270 7424 c-223 -125 -380 -288 -440 -456 -18 -49 -24 -93 -27 -193 -6 -155 13 -259 75 -413 32 -79 43 -96 58 -94 36 6 186 97 267 162 257 205 334 454 247 795 -26 100 -81 229 -100 232 -8 2 -44 -13 -80 -33z" />
      <path
         id="pdoEB8Xze"
         d="M12387 6497 c-36 -55 -107 -209 -130 -283 -32 -102 -50 -230 -42 -302 15 -136 75 -269 174 -388 58 -70 205 -196 268 -231 32 -17 33 -17 47 2 33 44 117 226 142 310 25 79 28 107 28 225 0 116 -3 144 -22 200 -40 111 -98 198 -206 306 -87 87 -212 184 -236 184 -4 0 -14 -10 -23 -23z" />
      <path
         id="p105HpfdCp"
         d="M16446 5959 c-122 -14 -119 -12 -112 -70 19 -139 112 -354 201 -461 136 -165 306 -239 560 -241 131 -2 250 8 273 22 19 11 -37 219 -87 326 -122 260 -299 391 -576 424 -100 12 -157 12 -259 0z" />
      <path
         id="p12hZXD8oG"
         d="M7933 4488 c-135 -208 -199 -430 -173 -605 22 -143 94 -282 215 -411 59 -64 198 -182 214 -182 12 0 83 112 125 195 124 249 133 475 28 682 -29 56 -131 189 -184 239 -49 47 -169 144 -178 144 -3 0 -24 -28 -47 -62z" />
      <path
         id="p1E7bxU3xs"
         d="M9952 4103 c-85 -125 -151 -286 -172 -416 -25 -154 5 -300 94 -451 44 -76 207 -247 288 -304 l47 -32 39 57 c56 83 115 205 147 303 36 112 45 274 20 370 -32 125 -105 248 -218 368 -47 49 -186 162 -200 162 -3 0 -24 -26 -45 -57z" />
      <path
         id="pS5W9qVan"
         d="M14539 2930 c-106 -12 -143 -23 -147 -44 -11 -53 93 -319 166 -425 93 -136 234 -233 398 -272 78 -19 109 -21 254 -16 189 6 240 17 240 50 0 38 -38 162 -78 254 -101 235 -258 378 -473 432 -92 23 -256 33 -360 21z" />
    </g>
  </g>
  <g
     id="l2nDkntgRHXgB3ZWdZW1xAU"
     fill="rgb(82,144,77)"
     style="transform: none;">
    <g
       id="g519">
      <path
         id="pH9muAEVH"
         d="M17459 12461 c-209 -91 -381 -238 -459 -393 -57 -114 -74 -204 -67 -352 7 -160 69 -396 103 -396 7 0 67 27 132 60 249 126 400 294 448 497 23 96 21 265 -4 378 -24 106 -64 228 -78 232 -5 1 -39 -11 -75 -26z" />
      <path
         id="p1AicSqLBg"
         d="M11465 12328 c-122 -250 -148 -482 -72 -663 58 -142 193 -295 359 -409 97 -67 85 -73 159 79 209 431 114 775 -291 1055 -41 27 -79 50 -86 50 -7 0 -38 -51 -69 -112z" />
      <path
         id="p16nPnqGDx"
         d="M7186 12172 c-15 -24 -36 -196 -36 -294 0 -326 127 -533 415 -673 117 -58 291 -113 305 -99 5 5 17 54 26 109 19 120 14 328 -11 420 -53 193 -186 345 -390 444 -127 63 -296 113 -309 93z" />
      <path
         id="p12uTDInAg"
         d="M11107 10318 c-188 -293 -221 -602 -90 -827 68 -118 203 -260 320 -339 l62 -42 36 60 c101 167 154 321 162 480 6 122 -8 194 -61 305 -61 128 -189 272 -334 373 l-62 43 -33 -53z" />
      <path
         id="psnFT8KNE"
         d="M17385 9439 c-116 -17 -227 -66 -343 -151 -64 -47 -173 -153 -216 -211 -34 -44 -41 -35 91 -123 159 -106 291 -153 449 -161 121 -6 179 3 279 44 123 51 284 178 393 311 40 49 48 38 -77 124 -186 128 -405 192 -576 167z" />
      <path
         id="pGUqcvkRd"
         d="M13443 9373 c-39 -5 -40 -11 -18 -139 36 -206 107 -364 215 -478 145 -152 331 -219 612 -220 70 0 130 3 134 7 10 9 -12 157 -37 254 -26 100 -105 263 -162 331 -82 99 -216 181 -352 216 -117 30 -285 42 -392 29z" />
      <path
         id="pPVwCIvd5"
         d="M4554 8582 c-225 -136 -385 -328 -429 -513 -31 -132 -12 -321 48 -479 30 -80 83 -186 97 -195 27 -17 210 116 318 229 86 92 151 201 177 302 24 92 20 252 -9 368 -25 98 -93 263 -124 303 l-17 22 -61 -37z" />
      <path
         id="pJuwrYWIm"
         d="M8939 8047 c-47 -58 -119 -171 -151 -237 -134 -283 -111 -523 72 -770 63 -85 216 -234 231 -225 23 15 126 164 166 240 71 138 96 232 97 365 0 100 -3 125 -27 194 -31 89 -86 187 -148 267 -51 65 -189 199 -203 198 -6 0 -23 -15 -37 -32z" />
      <path
         id="pmYHifR7W"
         d="M11188 6853 c-26 -29 -98 -152 -124 -210 -93 -211 -108 -405 -45 -574 29 -77 86 -168 151 -242 59 -67 170 -168 219 -199 l30 -19 39 58 c22 32 57 94 79 138 173 344 126 642 -144 912 -52 52 -175 153 -186 153 -2 0 -11 -8 -19 -17z" />
      <path
         id="ptDzkwogB"
         d="M7036 5253 c-60 -95 -92 -159 -126 -261 -78 -233 -51 -435 83 -632 64 -93 273 -290 308 -290 14 0 97 132 139 223 148 316 107 582 -130 849 -49 56 -198 178 -217 178 -8 0 -33 -30 -57 -67z" />
      <path
         id="pa696U5g4"
         d="M18295 5133 c-104 -15 -345 -94 -345 -114 0 -36 119 -231 199 -326 93 -111 243 -205 369 -232 67 -14 230 -14 308 -1 113 20 249 69 280 101 l29 30 -42 82 c-24 45 -73 122 -109 170 -153 203 -336 299 -563 296 -53 -1 -109 -4 -126 -6z" />
      <path
         id="p11NvMgAM7"
         d="M14255 4791 c-50 -84 -90 -176 -121 -278 -22 -72 -27 -110 -28 -208 -1 -76 4 -138 13 -170 18 -65 74 -178 116 -236 50 -66 192 -200 270 -253 l69 -45 19 27 c37 54 100 189 129 272 100 296 39 542 -192 770 -63 63 -216 180 -233 180 -3 0 -22 -27 -42 -59z" />
      <path
         id="pd3VjV23i"
         d="M9023 3152 c-98 -124 -188 -294 -218 -417 -23 -90 -23 -230 -1 -314 22 -82 80 -198 142 -281 56 -77 200 -220 220 -220 21 0 123 143 176 246 75 145 93 217 92 364 0 109 -3 134 -27 199 -41 115 -112 223 -221 338 -54 57 -107 108 -116 113 -14 7 -24 1 -47 -28z" />
    </g>
  </g>
  <path
     style="fill:#c7beb7"
     id="pxHSpSZYC"
     d="m 11295,21959 c -1843,-109 -3555,-678 -5070,-1684 -585,-388 -1041,-760 -1543,-1258 -522,-518 -928,-1010 -1329,-1612 -119,-179 -273,-428 -273,-441 0,-5 1167,-8 3076,-6 2921,2 3075,3 3070,20 -39,137 -54,179 -87,245 -22,43 -53,100 -71,125 -111,162 -443,393 -629,437 -95,22 -188,19 -491,-18 -230,-29 -291,-33 -390,-27 -109,6 -122,9 -191,44 -105,53 -230,150 -519,403 -379,331 -496,422 -646,497 -109,55 -371,159 -521,206 -115,37 -135,47 -166,81 -39,44 -46,83 -16,99 72,38 343,-21 631,-138 217,-88 299,-135 497,-284 184,-138 571,-395 720,-478 62,-34 151,-76 199,-92 l 86,-30 117,11 c 64,7 262,37 441,67 297,51 334,55 430,50 218,-11 492,-93 649,-193 30,-20 105,-85 167,-145 72,-70 119,-109 130,-106 9,1 26,16 38,31 19,25 21,42 20,140 0,187 -61,412 -169,632 -105,213 -233,340 -582,576 -469,317 -604,445 -777,733 -105,173 -156,330 -127,385 15,27 64,28 107,2 47,-28 132,-116 294,-301 179,-205 291,-316 372,-370 35,-23 230,-124 433,-225 411,-205 480,-249 626,-402 168,-177 260,-346 335,-614 117,-420 159,-524 253,-620 l 57,-59 h 98 c 270,0 703,147 1048,356 265,161 485,354 676,594 114,143 195,204 345,258 109,39 238,64 557,107 311,42 468,72 605,116 121,40 361,158 635,315 330,188 414,224 447,191 27,-27 6,-67 -76,-147 -137,-132 -444,-340 -676,-456 -126,-63 -141,-67 -523,-164 -438,-110 -647,-176 -801,-251 -92,-45 -116,-62 -201,-148 -103,-102 -146,-162 -280,-386 -217,-365 -333,-486 -588,-614 -104,-52 -180,-82 -422,-166 -211,-73 -308,-117 -383,-171 -44,-32 -107,-106 -107,-126 0,-4 2219,-8 4930,-8 2712,0 4930,2 4930,5 0,9 -143,240 -256,412 -549,839 -1236,1608 -2014,2257 -1070,893 -2325,1562 -3656,1950 -705,205 -1347,321 -2154,387 -173,14 -1089,20 -1285,8 z" />
</svg>
