<svg version="1" xmlns="http://www.w3.org/2000/svg" width="1333.333" height="1333.333" viewBox="0 0 1000.000000 1000.000000"><path d="M513.9 68.3c-7.9 6.1-13.6 15.3-14.6 23.7-.7 6 2.3 16.4 6.7 23.3l3 4.8 2.8-2c5.1-3.6 11.3-11.1 13.9-16.7 3.5-7.8 3-17.2-1.4-26.4-5.1-10.7-5.1-10.7-10.4-6.7zM382.1 86c-10.7 11.1-13.3 23.3-7.7 35.5 3.4 7.5 7.5 13.5 9.1 13.5 1.9 0 11.2-10.5 13.7-15.4 3.2-6.2 3.6-16.6.9-23.6-2.3-5.9-8.4-15-10.2-15-.5 0-3.2 2.2-5.8 5zM632.7 92c-11.1 2.8-18.8 11.4-23 25.7-1 3.4-1.2 5.5-.6 5.9.6.3 4.5.8 8.8 1.1 17.9 1.3 29.3-6.7 35.2-24.4 1.4-4.4 1.8-6.8 1.1-7.5-1.4-1.4-16.8-1.9-21.5-.8zM462.5 108c-5.3 2.1-6 8.8-1.3 12.3 3.4 2.6 7.5 1.5 9.7-2.4 1.9-3.3.1-8.1-3.5-9.8-1.4-.6-2.6-1.1-2.7-1-.1 0-1.1.4-2.2.9zM582.4 119.4c-7.7 3.9-14.3 9.9-17 15.4-3.6 7.4-2.6 30.2 1.3 30.2 2.5 0 13.5-5.7 17.6-9 2-1.7 4.9-5.2 6.4-7.8 2.3-3.9 2.8-6 3.1-13.7.3-9-1.2-17.5-3.4-18.2-.6-.2-4.2 1.2-8 3.1zM424.8 128.3c-8.7 8.5-11.3 14-11.3 23.8 0 6.9.4 8.3 4.3 16.2 2.4 4.8 4.7 8.7 5.2 8.7s3.6-2.5 6.9-5.6c10.9-10 14.4-21.3 10.7-33.8-1.5-4.9-7.5-15.6-8.7-15.6-.4 0-3.6 2.8-7.1 6.3zM339.2 144.7c-3.3 3.3-7.1 8.3-8.6 11.5-2.5 5.1-2.8 6.7-2.4 13.2.3 6.2 1 8.6 4.3 15.2 2.2 4.3 4.6 7.9 5.3 8.2.7.2 4.3-2.7 8.1-6.5 10.3-10.3 13-19.3 9.5-31.4-2-6.8-7.1-15.9-8.9-15.9-.8 0-4.1 2.6-7.3 5.7zM662.9 147.7c-2.5 2.8-2.8 4.7-1.4 8 2.4 5.8 9.4 5.6 12.2-.2 1.6-3.4 1.6-3.6-.4-6.3-2.5-3.4-8.1-4.2-10.4-1.5zM246.6 153.3c-5.7 9.9-7.3 23.4-3.6 31.4 2.2 5 9.8 13.4 14.8 16.5l3.5 2.1 1.8-2.4c2.9-3.7 6-12.8 6.6-18.9.7-7-.8-12.5-5.1-18.7-3.4-4.9-12.7-13.3-14.9-13.3-.7 0-2 1.5-3.1 3.3zM611.3 155.9c-12.4 9.8-17 20.8-13.9 33 1.2 4.9 5.6 15.3 7.2 17 .7.8 7.4-4.2 11.7-8.8 8.8-9.4 11.2-17.8 8.3-29-1.6-6.4-6.3-16.1-7.7-16.1-.4 0-2.9 1.7-5.6 3.9zM721.9 153c-6.3 1.1-10.5 3.4-15.8 8.9-5.1 5.3-10.8 14.9-9.5 16.1 2.9 2.5 11.5 4.5 19.9 4.5 8 0 9.5-.3 13.6-2.7 5.8-3.4 12.1-10.2 15.4-16.7l2.6-5.2-4.4-1.9c-2.3-1-6.3-2.2-8.7-2.5-2.5-.4-5.4-.8-6.5-.9-1.1-.2-4.1 0-6.6.4zM535.4 156.8c-6.5 4.7-13.1 12.9-15 18.4-2.4 7.2-1.5 16.4 2.3 24.9 1.7 3.7 3.6 7 4.2 7.4 3.1 1.8 14.9-9.6 18.8-18.2 3.7-8 3-17.2-2-27.7-2-4.2-3.8-7.6-4-7.6-.2 0-2.2 1.3-4.3 2.8zM382.4 171.4c-15.9 10.7-20.1 25.5-12.3 43.7 1.2 2.7 2.8 4.9 3.6 4.9 3.9 0 16.4-11.4 19.8-18 2.3-4.5 3-13.8 1.6-19.7-1.7-6.8-5.1-14.3-6.5-14.3-.6 0-3.4 1.5-6.2 3.4z"/><path d="M444.7 175.7c-3.8 7.4-5.7 14-7 23.6l-1.2 8.8-7.9-5.1c-4.3-2.8-8.1-5-8.6-4.8-.4.2 3.1 3.7 7.8 7.8 4.7 4.1 9.3 9.1 10.3 11 4.8 9.3 11.9 78 11.9 114.4v15.7l-4.6-3.8c-5.9-5-15.9-16.9-21.9-26.2-5.7-8.8-15.2-28.5-19.2-39.6-4-11.5-4-6.3.2 9 6.2 22.9 14.9 37.7 33.6 57.1 11.3 11.8 11.4 12.1 8.8 32.8-4.3 35.1-10 68.4-12.9 76.1-1 2.7-1.2 2.5-6.2-7.1-13-25.3-32-60.3-40-73.9-16.5-27.8-28.2-53.6-33.3-73.3-3.1-11.9-3.3-25.8-.5-49.7 2.6-22.4 2.6-43.5 0-43.5-.4 0-.7 4.2-.8 9.2-.2 14-5.8 47.8-10.5 63.7l-1.3 4.3-6-4.9c-8.3-7-30.6-30.2-39.1-40.8-4-5-8.9-12.1-10.9-15.9-3.2-6.1-3.9-8.6-5.5-21-2.2-16.9-2.9-20.1-3.8-18.9-.4.4-.2 8.9.5 18.8 1.1 16.6.8 21.5-1.3 21.5-.3 0-8.5-3.8-18.1-8.6-9.9-4.8-17.9-8.1-18.4-7.6-.4.4 3.6 3.1 9.4 5.9 40.6 20.2 77.7 58.6 99.3 102.8 9.4 19.2 18.7 44.5 16.4 44.5-2.9 0-34.6-18.4-52.1-30.2-4.9-3.2-8.8-5.4-8.8-4.9 0 1.6 11.5 10.2 33.5 25.1 11.6 7.8 24.6 17 29 20.5 10.8 8.5 22.4 20.7 27.3 29.1 11.9 20.1 17.6 46.9 15.2 71-1.6 15.3-4.5 20.4-11.6 20.4-4.5 0-7.5-2.8-15.5-14.8-8.5-12.7-17-30-26.9-55-7.9-19.9-13.5-31.6-19.6-40.9-5.6-8.4-17.3-20.3-25.9-26.3-7.9-5.4-24.3-13.5-33.5-16.6-7.7-2.5-11.9-5.9-14.2-11.3-7.8-18.2-13.2-28-24-43.5-.4-.6-1-.8-1.3-.4-.4.3 1.6 3.9 4.3 8 6.7 10 11.8 20.2 14.2 29 3.5 12.7 3.8 12.4-9 7.8-6.1-2.1-11-3.5-11-3.1 0 .4 5.1 2.9 11.3 5.6 14.4 6.2 40.9 19.5 46.7 23.4 6.2 4.2 15.4 13.5 19.4 19.6 4 6 9.1 17.9 7.3 17.2-23.7-10.3-23-10.2-73.7-10.2-40.2-.1-42.9-.2-50.1-2.2-7.3-2.1-20.5-8.2-29.6-13.8-2.4-1.4-4.3-2.2-4.3-1.7 0 2.1 11 11.1 17.2 14.1 11.8 5.6 20.1 7.1 43.8 8.2 67.8 3 66 2.7 80.5 9.8 14.4 7.1 23.4 17.1 33.8 37.4 5.3 10.2 10.1 21.6 9.5 22.2-.2.2-3-.8-6.2-2.2-14.6-6.1-28.1-6.8-50.1-2.3-17.1 3.5-28.7 3.8-43.5 1.5-5.2-.9-10.3-1.8-11.4-2.1-1.2-.4-1.7-.2-1.4.7.6 1.7 27.1 8.9 33.9 9.2l5.7.2-11.6 5.7c-10.7 5.3-14.8 7.8-12.8 7.8.4 0 11.2-3.8 24-8.4 12.7-4.6 25.5-8.9 28.5-9.6 10.9-2.6 25.5.5 41.3 8.6 11.5 5.9 27.7 23 39.1 41 11.1 17.4 21 37.5 23.7 47.9 4.7 17.5 3.4 46.3-4.5 98-1.3 8.8-3.6 26.3-5 39-2.5 22.4-4.1 34.3-4.4 31.7-.1-1.6-261.1-1.8-261.1-.2s10.3 17.8 19.1 30.2c29.9 41.8 67.7 79 108.9 107.1 60.7 41.3 125 65 199.5 73.4 21.2 2.4 69.3 2.4 90-.1 56-6.5 101-19.9 149.5-44.2C767.4 849 824.9 796.8 868.2 729c3.8-5.8 6.8-11.1 6.8-11.8 0-1.8-418-1.8-418.1 0-.2 5.5-5.6-22.3-8.9-46.2-1.5-10.3-2.4-25.4-3.2-52.5-.9-32.7-.8-43.1.6-75 1.5-30.7 2.1-37.7 3.5-41 2-4.3 8-10.3 27-26.5 20.9-17.9 27.1-20.9 45.1-21.7 17.2-.8 30.3 1 52.4 7.5 4.6 1.3-.2-2.3-7.8-5.9-12.6-5.9-30.8-9.8-46.4-10l-6.7-.1 4-1.8c18.9-8.5 77.1-33.2 81.4-34.4 8.2-2.4 14.8-2 25.7 1.5 5.3 1.7 9.8 2.8 10.1 2.5.3-.2-2.1-1.8-5.3-3.5-3.3-1.6-6.8-3.6-7.9-4.5-2-1.5-2-1.5.3-1.6 1.3 0 6.9-.9 12.5-2.1 30.8-6.3 53.9-18.6 63.7-33.9 4.4-6.9 3.4-8.2-1.5-1.9-5.8 7.7-15.7 15.4-26 20.4-10.9 5.3-16.2 6.7-42 11.1-30.8 5.3-32.9 6-88.5 30.9-10.7 4.8-21.5 9.6-23.9 10.7l-4.4 1.8 8.2-8.6c10.8-11.4 24.3-29.6 33.7-45.5 8.9-15 16.1-22.4 27.6-28.8 9.1-5 26.4-10.8 36.8-12.3 11.1-1.7 10.3-3.3-1.2-2.4-11.7.9-25.3 3.8-38.7 8.3-5.7 1.9-10.5 3.2-10.8 2.9-1.6-1.6 15.3-26.7 25.2-37.4 12.9-13.8 26.3-22.9 48-32.5 27.3-12.1 33.8-15.1 32.8-15.4-.6-.2-5.8 1.2-11.4 3.3-10.2 3.5-57 19.4-57.4 19.4-.1 0 .6-3.6 1.6-8 .9-4.4 1.4-8 1-8-.4 0-2 3-3.6 6.7-4.3 9.8-12.7 21.9-26.5 37.8-19.3 22.3-24.9 31-33.9 53.2-5.6 13.8-10.7 23-19.2 34.2-7.2 9.6-23.3 25-23.7 22.8-.2-.9.6-10.6 1.7-21.6 1.2-11.1 2.1-20.9 2.1-21.8-.1-6.4-5.9 18.4-8.1 34.5-1.5 11.6-5.3 18.4-16.2 29.5-10.8 10.8-20.8 17.9-24.6 17.5-2.6-.3-2.6-.3-2.5-9.8.4-21.5 14.6-88.5 22-103.1 8-16.2 22.3-35.2 40.5-54.3 5.6-5.8 9.8-10.6 9.4-10.6-1 0-13.4 9.5-22.7 17.3l-7 5.9.7-3.4c.4-1.8 3-10.5 5.7-19.3 6.1-19.4 7.8-29.8 7.7-47.5 0-12.2-2-35.4-3.1-36.6-.3-.2-.8 8.2-1.1 18.8-1.3 41.4-4 51.7-24.8 95.1l-11.4 23.8-1.3-11.3c-1.4-12.6-4.2-30.4-10.2-63.8-8.6-47.5-11.1-72.4-9.2-88.7.6-5.3.9-9.9.7-10.1-.2-.2-1.5 1.8-2.8 4.5zm15.9 546.5l2.9 3.3-3.2-2.9c-3.1-2.8-3.8-3.6-3-3.6.2 0 1.6 1.5 3.3 3.2zM384 736.3c0 .2-1.7 1.9-3.7 3.8l-3.8 3.4 3.4-3.8c3.3-3.4 4.1-4.2 4.1-3.4zm120.1 6.4c1.3 1.6 1.2 1.7-.3.4-1.7-1.3-2.2-2.1-1.4-2.1.2 0 1 .8 1.7 1.7zm5 4c1.3 1.6 1.2 1.7-.3.4-1.7-1.3-2.2-2.1-1.4-2.1.2 0 1 .8 1.7 1.7zm-66.2-.5c-.2.2-1.7 1.4-3.4 2.8l-3 2.5 2.4-2.8c1.4-1.5 2.9-2.7 3.4-2.7.6 0 .8.1.6.2zm10.4.5c-.7.2-1.9.2-2.5 0-.7-.3-.2-.5 1.2-.5s1.9.2 1.3.5zm5.4.9c-.3.3-1.2.4-1.9.1-.8-.3-.5-.6.6-.6 1.1-.1 1.7.2 1.3.5zm-89.7.9c0 .2-1 .9-2.2 1.5-2.2 1.1-2.2 1-.4-.4 2.1-1.7 2.6-1.9 2.6-1.1zm35 1.8c0 .2-1.9 2.1-4.2 4.2l-4.3 4 4-4.3c3.6-3.9 4.5-4.7 4.5-3.9zm3.8 2.2c-.3.3-.9-.2-1.2-1.2-.6-1.4-.5-1.5.5-.6.7.7 1 1.5.7 1.8zm105.3-.8c1.3 1.6 1.2 1.7-.3.4-1.7-1.3-2.2-2.1-1.4-2.1.2 0 1 .8 1.7 1.7zm-186.3 0c-1.5.2-4.2.2-6 0-1.8-.2-.6-.4 2.7-.4 3.3 0 4.8.2 3.3.4zm8.5 1c-.7.2-1.9.2-2.5 0-.7-.3-.2-.5 1.2-.5s1.9.2 1.3.5zm8 1c-.7.2-2.1.2-3 0-1-.3-.4-.5 1.2-.5 1.7 0 2.4.2 1.8.5zm134.7.3c.8.5 1.1 1 .5 1-.5 0-1.7-.5-2.5-1s-1-1-.5-1c.6 0 1.7.5 2.5 1zm-42.7 1.5c-.3.9-.8 1.4-1 1.1-.3-.3-.2-.9.2-1.5.9-1.6 1.5-1.3.8.4zm-26.6 2.7c-.3.8-.6.5-.6-.6-.1-1.1.2-1.7.5-1.3.3.3.4 1.2.1 1.9zm-102.7-.8c0 .2-.8 1-1.7 1.7-1.6 1.3-1.7 1.2-.4-.4 1.3-1.6 2.1-2.1 2.1-1.3zm-5 3.9c0 .2-1.2 1.4-2.7 2.8l-2.8 2.4 2.4-2.8c2.3-2.5 3.1-3.2 3.1-2.4zm88.6 1.2c-1.1.8-2.5 1.5-3 1.5-.6-.1 0-.7 1.4-1.5 3.2-1.9 4-1.8 1.6 0zm-63.3 1.2c-.7.2-2.1.2-3 0-1-.3-.4-.5 1.2-.5 1.7 0 2.4.2 1.8.5zm8.4.9c-.3.3-1.2.4-1.9.1-.8-.3-.5-.6.6-.6 1.1-.1 1.7.2 1.3.5zm73 1.6c-.3.8-.6.5-.6-.6-.1-1.1.2-1.7.5-1.3.3.3.4 1.2.1 1.9zm-67-.6c-.3.3-1.2.4-1.9.1-.8-.3-.5-.6.6-.6 1.1-.1 1.7.2 1.3.5zm6 1c-.3.3-1.2.4-1.9.1-.8-.3-.5-.6.6-.6 1.1-.1 1.7.2 1.3.5zm-52.7.7c0 .2-1.5 1.6-3.2 3.3l-3.3 2.9 2.9-3.3c2.8-3 3.6-3.7 3.6-2.9zm19 .2c0 .2-1 .9-2.2 1.5-2.2 1.1-2.2 1-.4-.4 2.1-1.7 2.6-1.9 2.6-1.1zm39.7.1c-.3.3-1.2.4-1.9.1-.8-.3-.5-.6.6-.6 1.1-.1 1.7.2 1.3.5zm5.6 1.1c-.7.2-1.9.2-2.5 0-.7-.3-.2-.5 1.2-.5s1.9.2 1.3.5zm12.4-.1c-.3.3-1.2.4-1.9.1-.8-.3-.5-.6.6-.6 1.1-.1 1.7.2 1.3.5zm136.9 4.6l2.9 3.3-3.2-2.9c-1.8-1.7-3.3-3.1-3.3-3.3 0-.8.8-.1 3.6 2.9zM286 774.3c0 .2-1.5 1.6-3.2 3.3l-3.3 2.9 2.9-3.3c2.8-3 3.6-3.7 3.6-2.9zm246.5 5.7c2.1 2.2 3.7 4 3.4 4-.3 0-2.3-1.8-4.4-4-2.1-2.2-3.7-4-3.4-4 .3 0 2.3 1.8 4.4 4zm-253.5.3c0 .2-1 1.2-2.2 2.3l-2.3 1.9 1.9-2.3c1.8-2.1 2.6-2.7 2.6-1.9zm13 .1c0 .2-.8 1-1.7 1.7-1.6 1.3-1.7 1.2-.4-.4 1.3-1.6 2.1-2.1 2.1-1.3zm225 2.1c1.3 1.4 2.1 2.5 1.8 2.5-.2 0-1.5-1.1-2.8-2.5-1.3-1.4-2.1-2.5-1.8-2.5.2 0 1.5 1.1 2.8 2.5zm-243 1.9c0 .2-.8 1-1.7 1.7-1.6 1.3-1.7 1.2-.4-.4 1.3-1.6 2.1-2.1 2.1-1.3zm269.6 3.4c-.5.4-6.6-2.6-6.6-3.3 0-.3 1.6.3 3.5 1.2 1.9.9 3.3 1.8 3.1 2.1zM285 785.4c0 .2-.8 1-1.7 1.7-1.6 1.3-1.7 1.2-.4-.4 1.3-1.6 2.1-2.1 2.1-1.3zm115.1 1.9c-1 .9-1.1.8-.5-.6.3-1 .9-1.5 1.2-1.2.3.3 0 1.1-.7 1.8zm123.9 3.2c1.9 1.9 3.2 3.5 2.9 3.5-.3 0-2-1.6-3.9-3.5s-3.2-3.5-2.9-3.5c.3 0 2 1.6 3.9 3.5zm-243-2.1c0 .2-.8 1-1.7 1.7-1.6 1.3-1.7 1.2-.4-.4 1.3-1.6 2.1-2.1 2.1-1.3zm-4 3c0 .2-.8 1-1.7 1.7-1.6 1.3-1.7 1.2-.4-.4 1.3-1.6 2.1-2.1 2.1-1.3zm121 0c0 .2-.8 1-1.7 1.7-1.6 1.3-1.7 1.2-.4-.4 1.3-1.6 2.1-2.1 2.1-1.3zm-127 4.1c0 .6-5.6 3.5-6.7 3.5-.4-.1.8-.9 2.7-2 3.9-2.2 4-2.2 4-1.5zm149-.1c0 .2-.8 1-1.7 1.7-1.6 1.3-1.7 1.2-.4-.4 1.3-1.6 2.1-2.1 2.1-1.3zm-30 3.9c0 .2-1 1.2-2.2 2.3l-2.3 1.9 1.9-2.3c1.8-2.1 2.6-2.7 2.6-1.9zm153.7.3c-.3.3-1.2.4-1.9.1-.8-.3-.5-.6.6-.6 1.1-.1 1.7.2 1.3.5zm5 1c-.3.3-1.2.4-1.9.1-.8-.3-.5-.6.6-.6 1.1-.1 1.7.2 1.3.5zm-310.7.8c0 .2-.7.7-1.6 1-.8.3-1.2.2-.9-.4.6-1 2.5-1.4 2.5-.6zm177 0c0 .2-.8 1-1.7 1.7-1.6 1.3-1.7 1.2-.4-.4 1.3-1.6 2.1-2.1 2.1-1.3zm141.3.3c-.7.2-1.9.2-2.5 0-.7-.3-.2-.5 1.2-.5s1.9.2 1.3.5zm8 1c-.7.2-1.9.2-2.5 0-.7-.3-.2-.5 1.2-.5s1.9.2 1.3.5zm-179.3.7c0 .2-.8 1-1.7 1.7-1.6 1.3-1.7 1.2-.4-.4 1.3-1.6 2.1-2.1 2.1-1.3zm185.7.2c-.3.3-1.2.4-1.9.1-.8-.3-.5-.6.6-.6 1.1-.1 1.7.2 1.3.5zm5 1c-.3.3-1.2.4-1.9.1-.8-.3-.5-.6.6-.6 1.1-.1 1.7.2 1.3.5zm26.3 2c0 .2-.9 0-2-.6s-2-1.3-2-1.6c0-.2.9 0 2 .6s2 1.3 2 1.6zm-192-1.2c0 .2-.8 1-1.7 1.7-1.6 1.3-1.7 1.2-.4-.4 1.3-1.6 2.1-2.1 2.1-1.3zm-7 5.1c0 .2-1 .9-2.2 1.5-2.2 1.1-2.2 1-.4-.4 2.1-1.7 2.6-1.9 2.6-1.1zm-34 3.9c0 .2-.8 1-1.7 1.7-1.6 1.3-1.7 1.2-.4-.4 1.3-1.6 2.1-2.1 2.1-1.3zm237 3.2c0 .2-.9 0-2-.6s-2-1.3-2-1.6c0-.2.9 0 2 .6s2 1.3 2 1.6zm-215-.6c-.8.5-1.9 1-2.5 1-.5 0-.3-.5.5-1s2-1 2.5-1c.6 0 .3.5-.5 1zm-26 .4c0 .2-.8 1-1.7 1.7-1.6 1.3-1.7 1.2-.4-.4 1.3-1.6 2.1-2.1 2.1-1.3zm264 10.3c0 .7-.8 1.3-1.7 1.3-1.5 0-1.6-.2-.3-1 1.2-.8.8-1.7-2.5-5.2l-4-4.3 4.3 4c2.3 2.1 4.2 4.5 4.2 5.2zm-268-7.4c0 .2-1 1.2-2.2 2.3l-2.3 1.9 1.9-2.3c1.8-2.1 2.6-2.7 2.6-1.9zm16 3.2c0 .2-1 .9-2.2 1.5-2.2 1.1-2.2 1-.4-.4 2.1-1.7 2.6-1.9 2.6-1.1zm247.6 4.3c-.5.4-6.6-2.6-6.6-3.3 0-.3 1.6.3 3.5 1.2 1.9.9 3.3 1.8 3.1 2.1zM352 829.3c0 .2-1 1.2-2.2 2.3l-2.3 1.9 1.9-2.3c1.8-2.1 2.6-2.7 2.6-1.9zm14 1c0 .2-1.7 1.9-3.7 3.8l-3.8 3.4 3.4-3.8c3.3-3.4 4.1-4.2 4.1-3.4zm-18 4.1c0 .2-.8 1-1.7 1.7-1.6 1.3-1.7 1.2-.4-.4 1.3-1.6 2.1-2.1 2.1-1.3zm10 4.9c0 .2-1.5 1.6-3.2 3.3l-3.3 2.9 2.9-3.3c2.8-3 3.6-3.7 3.6-2.9zm-11 12.2c-2.4 2.5-4.6 4.5-4.9 4.5-.3 0 1.5-2 3.9-4.5s4.6-4.5 4.9-4.5c.3 0-1.5 2-3.9 4.5zm-8.7 3.5c.3 1.1.1 1.8-.4 1.4-.5-.3-.9-1.2-.9-2 0-2 .7-1.7 1.3.6z"/><path d="M302.1 177.5c-10.7 10.2-14 20.3-10.6 32.1 1.7 6.1 7.3 16.4 8.8 16.4 1.9 0 13.5-12.3 15.7-16.7 3.3-6.6 3.8-16 1.3-23.3-2.3-6.4-6.8-14-8.4-14-.6 0-3.6 2.5-6.8 5.5zM466.7 177.2c-2 2.5-4.9 7.1-6.4 10.4-5.5 12.1-2.9 24.3 7.8 35.7l4.9 5.2 3.3-3.7c5.3-6 8.9-14.3 9.5-22.1.4-6.2.2-7.3-3.1-14-2-4-5.6-9.1-8-11.5l-4.4-4.4-3.6 4.4zM427 181.8c-3.1 1-5 3.6-5 6.9 0 7.7 9 10.1 12.5 3.2 2.7-5.1-2.3-11.8-7.5-10.1zM778.5 190.4c-6 2.8-13.3 10.4-17 17.5l-2.6 5.2 3.4 1.4c9.8 4.1 22.8 4.5 30.1 1 7.2-3.5 20-19.4 18.1-22.5-1.2-1.9-13.7-5-20.4-5-4.8 0-7.9.6-11.6 2.4zM189.3 202.2c1.9 19.7 12.8 30.3 32.3 31.6l8.7.5-.6-6c-2.1-19.9-13.3-30.4-34.1-31.8l-6.9-.5.6 6.2zM327.2 209.8c-10.4 10.4-13.4 20.8-9.3 32.9 2.1 6.4 7 15.3 8.3 15.3 1.8 0 13.7-12.9 15.8-17 3.4-6.7 3.8-15.5 1-23.2-2.8-7.8-6.5-13.8-8.5-13.8-.8 0-4.1 2.6-7.3 5.8zM411.2 209.1c-6.9 12.1-8 23-3.2 32.7 3 5.9 13.7 17.2 16.3 17.2 1.6 0 6-8 8.2-14.9 2.2-6.9 1.6-16-1.5-22.1-2.3-4.6-14.3-17-16.3-17-.7 0-2.3 1.9-3.5 4.1zM648.7 206.1c-12.7 3-22.7 15.1-24.4 29.6l-.6 4.3 3.9.2c22.2 1.1 33.8-7 39-27.1 1.3-5.3 1.4-6.5.2-7.2-1.7-1.1-13.1-1-18.1.2zM243.2 217c-5.7 5.3.3 15 7.2 11.8 3.3-1.4 5-5.6 3.7-9.1-1.8-4.8-7.2-6.1-10.9-2.7zM712.5 220.8c-6.5 2.2-10.5 5.1-13.9 10.1-3.5 5-7.5 14.8-7.6 18.3 0 3.5 2.4 4.2 13.3 3.6 9.8-.5 15.7-2.9 21.2-8.4 6.4-6.6 12.6-22.5 9.4-24.5-2.5-1.5-17.1-1-22.4.9zM560.2 222.7c-.7.3-1.9 1.8-2.8 3.5-2 3.9-.4 8.1 3.7 9.9 2.6 1 3.4.9 5.7-.8 3.9-2.9 4.2-8.3.6-11.2-2.6-2.1-4.6-2.5-7.2-1.4zM532.4 225.8c-12.7 9.3-17.7 20.3-14.9 33.4 1.3 6.3 5.5 16.1 7.4 17.2 1.1.7 9.6-5.9 13.4-10.4 5.6-6.6 7.2-10.9 7.2-19.5 0-7.1-.4-8.8-3.7-15.8-2-4.2-4.1-7.7-4.6-7.7s-2.7 1.3-4.8 2.8zM364.7 230.7c-1.7 2.7-3.7 12.6-3.7 17.8 0 9 2.4 15.1 8.4 21 5.2 5.3 15.5 11.1 17.9 10.2 1.8-.7 3.8-7.8 4.4-15.3 1.1-13.2-5.2-23.8-18.6-30.8-7.4-3.9-7.7-4-8.4-2.9zM579 232.6c-11.9 6.7-18 16.3-18 28.1 0 7.8 3.4 20.3 5.4 20.3 1.8 0 12.7-6.7 15.9-9.8 1.5-1.5 4.2-5.5 5.9-9 2.9-5.8 3-6.8 2.5-14-.6-8.5-3.5-17.5-5.7-17.9-.8-.2-3.5.9-6 2.3zM773 237.5c-15.9 8.6-21.4 20.5-17.6 37.9 1 4.1 2.2 7.8 2.7 8.2 1.8 1.1 13.6-5.5 18.4-10.2 6.5-6.3 8.9-12 8.8-21.5 0-8-2.6-17.9-4.6-17.9-.7 0-4.1 1.6-7.7 3.5zM256.4 236.3c-.8 2.3 2.2 13.2 5.3 19 5.5 9.9 13.7 14.5 27.8 15.3 10.4.7 11 .2 9.5-6.9-2.5-12.4-9.4-21.8-18.9-26-6.2-2.7-22.8-3.7-23.7-1.4zM475.8 243.2c-10.3 10.2-13.4 19.2-10.4 30.9 1.8 6.9 7.2 16.9 9.2 16.9 2.8 0 12.4-10.3 15.5-16.6 2.9-5.9 3.1-7 2.7-14.2-.4-6.8-1-8.9-4.4-15.2-2.2-4-4.5-7.5-5.1-7.7-.6-.2-4 2.4-7.5 5.9zM622.5 264.5c-1.4 1.3-2.5 3.6-2.5 5 0 3.1 4.1 7.5 7 7.5 2.9 0 7-4.4 7-7.5 0-3.1-4.1-7.5-7-7.5-1.1 0-3.2 1.1-4.5 2.5zM245 265c-2.4 2.4-2.6 6.7-.4 9.8 2.2 3.2 7.6 3 10.3-.4 2.7-3.5 2.6-5.9-.4-8.9-2.9-3-6.8-3.2-9.5-.5zM417.7 268.7c-7.8 20-2.3 35.6 16.1 45.6l5 2.7 2-4.8c4.2-9.9 4.8-20.1 1.5-28-2.7-6.5-17-19.2-21.6-19.2-.8 0-2.1 1.7-3 3.7zM188.2 267.8c-1.9 1.3 0 10.3 3.9 18.1 5.6 11.3 13.9 16.1 28.6 16.9 11 .6 11.2.3 8.9-8.9-3.3-12.5-10.1-21.1-19.5-24.4-5.4-1.9-20-3-21.9-1.7zM306.4 272.8c-1.5 1-3.4 4.7-3.4 6.7 0 2.4 4.6 6.5 7.3 6.5 1.3 0 3.3-1 4.5-2.3 4.3-4.5 1.7-11.7-4.1-11.7-1.8 0-3.7.4-4.3.8zM725.4 273.8c-1.5 1-3.4 4.7-3.4 6.7 0 2.4 4.6 6.5 7.3 6.5 5.4 0 8.9-8.7 4.9-12.3-1.9-1.7-6.8-2.2-8.8-.9zM264.2 280.7c-7 15.3-6.3 25.9 2.5 36.3 2.9 3.5 12 11 13.2 11 1.4 0 6.1-9.7 7.7-16.1 2.7-10.3.3-19.6-7.2-27.9-3.2-3.6-11.4-10-12.7-10-.2 0-1.8 3-3.5 6.7zM358.6 282.1c-3.5 2.7-3.5 7.1 0 10.5 1.9 2 3.1 2.4 5.2 2 6-1.5 8-7.9 3.7-12.1-3-3-5.4-3.1-8.9-.4zM651.3 284.9c-2.4.4-4.5 1-4.8 1.3-1 1 1.5 9 4.8 15.1 6.4 12.2 16.1 17.3 31.1 16.5 4.5-.2 8.7-.7 9.3-1.1.9-.6.8-2.1-.4-6-3.4-11.4-10-20-18.2-23.5-5.4-2.4-15.5-3.4-21.8-2.3zM848.7 286.5c-2.1.8-5.2 2.4-7 3.6-4.7 3.2-11.7 10.1-11.7 11.5 0 2 10.8 8.5 17.4 10.6 7.5 2.4 13.9 1.9 21-1.6 5.9-2.9 15.6-11.1 15.6-13.1 0-1.9-8.1-7.4-15-10.2-6.3-2.6-14.5-2.9-20.3-.8zM378.4 293.2c-2.6 2.9-6 8.1-7.7 11.6-2.6 5.7-2.9 7.1-2.5 13.3.6 7.5 4.4 16.5 9.5 22.4l2.6 2.9 5.2-5.6c13.6-14.6 14.6-28.2 3.2-45-1.8-2.7-3.7-4.8-4.4-4.8-.6 0-3.3 2.4-5.9 5.2zM303.4 292.5c-2.3 9.1 3.2 26.7 9.9 31.7 7.1 5.5 22.9 11 25.1 8.8 1.7-1.7.1-18.2-2.4-23.8-4.2-9.6-14.7-16.8-27.2-18.7-4.5-.7-4.7-.6-5.4 2zM543.8 295c-6.2 4.1-12.6 11.2-15 16.7-2.9 6.7-2.2 18.5 1.7 27 1.5 3.5 3.3 6.3 4 6.3 2.2 0 13.1-8.7 15.8-12.7 4.8-7 6-11.1 5.5-19.4-.3-5.7-1.2-9.1-3.6-14.2-1.7-3.7-3.3-6.7-3.5-6.7-.2 0-2.4 1.4-4.9 3zM122.1 295.7c-2.2 4.2-4.1 13.2-4.1 19.2 0 11.7 6.7 21.4 19.1 28.1 6.7 3.5 6.5 3.6 9.3-5.9 4.9-16.7-.6-29.9-16.8-40-5.8-3.6-6.2-3.7-7.5-1.4zM614.9 306.3c-8.3 3.1-14 8.3-19.7 17.8-3.1 5.1-2.8 6.5 1.6 8.2 15.6 6.3 30 3.2 39.4-8.4 3.1-3.8 7.8-11.9 7.8-13.3 0-.2-2.6-1.4-5.7-2.6-7.3-2.7-18.5-3.5-23.4-1.7zM177.6 317.9c-5.5 12.2-5.5 22.5-.1 31.7 2.7 4.5 10.2 11.7 14.9 14.1 3.8 2 4.9.8 8.1-8.3 4.3-12.1 3-21.9-4.2-31.2-2.4-3.2-13.7-12.2-15.3-12.2-.4 0-1.9 2.7-3.4 5.9zM510 313.3c-5.6 2.8-4.8 11 1.3 13.1 6.7 2.4 11.8-7.8 6.1-12.3-3.1-2.4-4-2.5-7.4-.8zM790.6 320.6c-8.3 2.6-17.3 13.5-20.4 24.6l-1 3.8 4.1 1.1c2.3.6 8.3.9 13.2.7 7.6-.3 9.8-.8 13.7-3 7.5-4.5 13.9-13.3 16.6-23l1-3.6-4.3-1.1c-6-1.5-17-1.3-22.9.5zM649.5 324.5c-1.4 1.3-2.5 3.6-2.5 5 0 3.1 4.1 7.5 7 7.5 2.9 0 7-4.4 7-7.5 0-3.1-4.1-7.5-7-7.5-1.1 0-3.2 1.1-4.5 2.5zM218.5 325c-.3.5-.9 4-1.4 7.7-1.5 12.2 1.1 21.5 8 28.4 4.1 4.1 15 9.9 19.3 10.2 2.6.2 3-.2 3.9-3.3.5-1.9.7-7.6.5-12.5-.4-10.3-2.8-15.6-9.3-21.4-6-5.3-19.7-11.2-21-9.1zM717.5 328.9c-3.3 1.6-8.2 5.3-11 8.1l-5 5.2 3.5 2.9c4.7 4 12.4 7.7 18.5 8.8 9.8 1.8 20.6-2.4 29.6-11.5l4.2-4.3-2.9-2.5c-1.6-1.4-5.6-4-8.9-5.8-5-2.6-7.3-3.2-14-3.6-7.3-.3-8.5-.1-14 2.7zM929.4 343c-3.1 2.7-6.3 5-7 5-.8 0-2.1-1.1-3-2.5-1.9-2.9-4.4-3.3-4.4-.8 0 3.7 3.8 6.3 9.1 6.3 2.5 0 4.4-1.1 8.7-5.2 5.2-4.9 5.5-5.1 6.8-3.3.8 1 1.4 2.5 1.4 3.3 0 2.6 2.5.6 2.8-2.3.4-3.4-1.8-5.5-5.9-5.5-1.9 0-4.6 1.6-8.5 5zM501.7 340.1c-9.5 2.2-16.8 8.6-21.8 19.3-4.3 9.1-4.1 10.2 2.8 11.6 12.8 2.7 26-1.1 32.8-9.4 3.8-4.6 8.3-13.7 8.7-17.6.3-2.3-.2-2.6-5.2-3.7-6.6-1.3-12.2-1.4-17.3-.2zM412.1 346.6c-1.7 3.7-4.1 14.3-4.1 18 0 6.4 2.9 13.1 8.2 18.9 4.8 5.2 13.7 11.5 16.5 11.5 2.1 0 5.7-12.9 5.7-20.5 0-8.8-2.5-14.8-8.8-20.9-4.8-4.6-12.5-9.6-14.9-9.6-.7 0-1.9 1.2-2.6 2.6zM874.7 346.8c-3.8 4.2-.4 12.2 5.2 12.2 2.5 0 7.1-4.2 7.1-6.5 0-2-1.9-5.7-3.4-6.7-2.1-1.4-7.3-.8-8.9 1zM117.2 349.7c-.7.3-1.9 1.8-2.8 3.5-2 3.9-.4 8.1 3.7 9.9 2.6 1 3.4.9 5.7-.8 6.9-5.2 1.4-15.8-6.6-12.6zM652.4 352c-14.7 3-24.6 14.5-26.1 30.6l-.6 6.7 7.9-.6c11.1-.8 16.8-3 23-9.1 5.8-5.8 9.1-13 10.1-22.7l.6-5.9-5.4.1c-3 .1-7.2.5-9.5.9zM390.6 354.2c-2.3 3.2-2 7.1.7 9.6 3 2.9 6.2 2.8 9.2-.3 2.8-2.7 3.1-4.5 1.4-7.8-1.6-3-2.8-3.7-6.6-3.7-2.2 0-3.7.7-4.7 2.2zM944.9 354.7c-.1.5 0 1.8.1 3 .1 1.9-.8 2.5-6.5 4.2-8.8 2.8-10 2.7-11.5-.8-.6-1.6-1.9-3.2-2.7-3.5-1.8-.7-1.5 1.3 1.4 10.9 2.3 7.8 3.1 8.9 4.8 7.5 1-.9 1.1-1.8.3-4.1-.6-1.7-.8-3.2-.6-3.4.3-.3 4-1.4 8.3-2.5 4.3-1.1 8.4-2.5 9.1-3.1 1.7-1.4 1.8-6.1.2-7.7-1.4-1.4-2.7-1.6-2.9-.5zM275 357c-2.6 2.6-2.6 8.1 0 10.5 2.9 2.6 7 2.2 9.8-1 5.6-6.5-3.7-15.6-9.8-9.5zM590.5 362.4c-9.4 3-14.9 7.8-19 16.7-2.7 5.9-5.1 16.6-4 17.7 1.2 1.2 14.1.5 19.6-1.1 12.2-3.6 20.1-14.2 22.3-30l.7-4.7-7.8.1c-4.3 0-9.6.6-11.8 1.3zM355.3 372.7c-8.3 14.2-8.3 27.2 0 37.9 3.5 4.5 11.3 11.4 12.8 11.4s6.2-8.2 8.2-14.5c2.4-7.6 1.9-16.3-1.3-22.5-2.2-4.4-14.1-17-16-17-.5 0-2.2 2.1-3.7 4.7zM141 373c-9.8 3.3-18.6 15.2-20.6 28l-.6 3.7 5.5.7c6.5.8 16.5-.8 21.8-3.5 7.8-3.9 14.1-12.9 16.8-24.2.6-2.6.9-5.2.6-5.8-1.1-1.7-17.6-1-23.5 1.1zM729 372.6c-5.5 1.5-11.5 4.6-15.9 8.2l-2.4 1.9 2.3 3.1c8.5 11.5 24.2 17 36.7 12.8 5.5-1.8 14.4-7.4 15.1-9.4.7-2.1-10.3-12.1-16.1-14.7-7-3.2-13-3.8-19.7-1.9zM940 377.8c0 .5.7 2.9 1.5 5.2.8 2.4 1.4 4.4 1.3 4.5-.2.2-2.1.6-4.3.9l-4 .7-1.8-5.1c-1.1-3.1-2.4-5-3.3-5-1.2 0-1.4.6-1 2.2.4 1.3 1.2 4.4 1.9 7 1.8 6.6 2.8 7.4 6.9 5.5 1.9-.9 7.7-2.7 12.9-4.1 6.5-1.6 9.5-2.9 9.7-4 .4-2-1.6-2-8.3-.2l-5 1.3-1.6-4.6c-.9-2.6-2.3-4.7-3.2-4.9-1-.2-1.7.1-1.7.6zM515.1 382.6c-1.2 1.5-2.1 3.4-2.1 4.4 0 1 .9 2.9 2.1 4.4 4 5 11.9 2.1 11.9-4.4s-7.9-9.4-11.9-4.4zM476.9 389.2c-7.3 6-12.5 13.7-14 20.6-.9 4.5-.8 6.7.5 11.9 1.6 6.8 6.3 16.4 8.2 17 1.9.6 11.2-7.4 14.8-12.9 6.6-9.7 7-20 1.2-32.2-4.4-9.5-4.4-9.5-10.7-4.4zM180.2 390.1c-8.1 3.9-15.5 11.3-17.6 17.5-3 8.9-1.3 27.4 2.6 28.2 2.2.4 12.9-5.1 17.3-8.9 6.4-5.7 8.9-11.1 9.2-20.8.4-9.6-1.3-18.4-3.7-18.8-.8-.2-4.3 1.1-7.8 2.8zM844.9 388.3c-5.9 2.2-10.7 5.6-14.3 10-3.3 4.2-7.6 11.7-7.6 13.6 0 1.9 12.9 5.3 20.1 5.3 8.9 0 16-3.2 22.1-10.1 4.6-5.1 9.3-13.5 8.4-15-2.2-3.6-22.3-6.2-28.7-3.8zM213.4 395.2c-6.7 7.6-9.9 14.7-9.9 22.9 0 5.5.6 7.6 3.7 14 2 4 5.1 8.7 6.8 10.4l3.2 3 4.4-5c7.2-8.1 9.9-14.6 9.9-23.5-.1-5.4-.6-8.7-2.1-12-2.2-4.7-9.4-15-10.6-15-.3 0-2.8 2.4-5.4 5.2zM239.1 393.6c-1.2 1.5-2.1 3.4-2.1 4.4 0 1 .9 2.9 2.1 4.4 4 5 11.9 2.1 11.9-4.4s-7.9-9.4-11.9-4.4zM675 395.6c-2.7.5-12 3.4-13.2 4.1-1.5.8 5.4 12.6 10 17.2 7 6.9 11.1 8.6 21.2 8.6 9.8 0 19-2.6 19-5.3 0-2.7-5.8-12-10.1-16.3-2.3-2.3-6.1-5-8.6-6.1-4.6-2-13.6-3.1-18.3-2.2zM952 399.8c-2.5 2.4-7.1 6.3-10.3 8.5-4.1 3-5.7 4.7-5.5 6.1.3 1.6 1.2 2 5.3 2.1 5.5.2 19.5 4.2 19.5 5.6 0 .5.7.9 1.6.9 1.2 0 1.5-.6 1-2.3-.3-1.2-.6-2.5-.6-2.9 0-.3-1.8-.9-3.9-1.3-4.8-.8-5.6-1.7-6.5-7.1-.5-3.9-.4-4.3 3-6.9 2.4-1.8 3.4-3.4 3.2-4.8-.5-3.2-1.9-2.7-6.8 2.1zm-2 12.6c0 1.4-.5 1.7-2.2 1.2-1.3-.3-3-.6-3.8-.6-1-.1-.4-.9 1.5-2.5 3.1-2.5 4.5-2 4.5 1.9zM273 398.9c-8.4 2.6-15 8.2-19 16.1-2.5 4.8-5.4 15.9-4.5 16.8.4.4 4.6.7 9.3.7 10.5-.1 17.3-2.2 23-7.1 5.2-4.4 11.2-16.1 11.5-22.4l.2-4.5-9-.2c-4.9-.1-10.1.2-11.5.6zM425.7 412.1c-4.6 2.7-4.1 10.5.9 12.7 7 3.2 12.8-6.3 7.1-11.6-2.5-2.4-5.2-2.7-8-1.1zM303.2 419.7c-5.2 4.4-2.4 12.3 4.2 12.3 4.1 0 6.6-2.6 6.6-6.8 0-6.1-6.3-9.3-10.8-5.5zM382.2 423.4c-12.8 13.5-14 28.3-3.4 43.5 2.1 3 4.4 5.7 5.1 5.9 1.7.6 9.3-7.9 12.8-14.2 2.5-4.5 2.8-6.1 2.8-13.6 0-7.7-.3-9.1-3.3-14.6-1.8-3.4-4.6-7.6-6-9.4l-2.7-3.2-5.3 5.6zM751.5 419c-5.7 1.2-12.5 4-12.5 5.2 0 2.5 6.4 11.9 11.4 16.6 8.8 8.4 19.3 10.1 33.5 5.6 2.9-1 5.5-2.3 5.8-3 .8-2-4.6-10.9-9.6-16.1-2.5-2.5-6.6-5.5-9-6.6-5-2.2-13.8-3-19.6-1.7zM616 423.2c0 7.2 4.7 18.4 9.9 24.1 5.7 6.2 12.2 8.7 23.7 9.4l9.4.6v-2.9c0-4.6-2.5-12.7-5.6-18.4-5.5-10-15.3-15-29.6-15-7.4 0-7.8.1-7.8 2.2zM957.3 430.5L953 436l-2-2c-2.4-2.4-8.2-2.7-10.4-.4-2.3 2.3-2 6.9.8 10.1 2.1 2.5 2.6 2.6 5 1.5 1.5-.6 6.5-1.5 11.1-1.8 8.1-.7 10.2-1.7 8.7-4.1-.4-.6-2.7-.8-5.9-.3-5.9.7-5.9.7.5-6.1 3.2-3.5 4-6.8 1.7-7.6-.5-.1-2.9 2.2-5.2 5.2zm-7.7 6.9c2.4 1.8 1.5 2.7-2.8 2.9-2.7.2-3.4-.2-3.6-2.1-.3-1.7.1-2.2 2-2.2 1.3 0 3.3.6 4.4 1.4zM574.3 433.3c.6 6 3.3 13.1 7.3 18.9 5.2 7.5 15.5 11.8 28.2 11.8h7.5l-.7-4.3c-1.4-8.7-4.7-16.6-9.1-21.5-6.2-6.9-12.5-9.4-24.4-10l-9.4-.5.6 5.6zM670.5 444.5c-6.3 6.3 1.8 16 8.8 10.5 3.7-2.9 3.7-8 .1-10.9-3.5-2.7-5.9-2.6-8.9.4zM183.1 444.3c-5.4 2.7-4.6 11.1 1.3 13 6.8 2.2 11.7-7.7 6-12.2-3.1-2.4-4-2.5-7.3-.8zM962.9 454.4c3.1 5 2.7 8.2-1.1 10.7-3.9 2.4-8.9 2-12.8-.9-2-1.6-2.5-2.8-2.5-6.3 0-3.3-.4-4.4-1.7-4.7-4.6-.9-1.8 11.8 3.4 15.2 6.4 4.2 16.3 2.5 19.3-3.4 2.6-5.1-.3-14-4.6-14h-2.1l2.1 3.4zM219 463.3c-13.9 3.1-23.1 13.7-25.6 29.7l-.7 4h9c5 0 11.1-.7 14-1.5 6.2-1.8 13-7.7 16.6-14.2 3-5.6 6.1-16.3 4.9-17.4-1.4-1.5-12.8-1.8-18.2-.6zM523.8 464.7c-.6 1.6-1.1 6.8-1.2 11.8-.1 11.1 2.4 17.5 9.2 23.5 4.5 4 12.5 8.4 17.4 9.6 2.4.5 2.8.2 3.5-2.3.4-1.5.8-7.5.8-13.3 0-9.6-.2-10.9-2.7-15.1-3.5-6-8.7-10.5-16.2-14-7.6-3.6-9.4-3.6-10.8-.2zM275.9 468.9c-12.6 2.3-21.5 11.7-25.4 26.8-.9 3.4-1.1 6.1-.6 6.6 1.7 1.7 20.2.3 25.2-2 5.7-2.5 11.1-8 14.3-14.5 2.6-5.1 5.3-15.4 4.4-16.3-1-1-13.3-1.4-17.9-.6zM326.5 471.1c-12.2 4.2-20.1 11.5-23.1 21.5-1.4 4.8-1.7 14.5-.5 19.9.6 2.6 1.1 3 4 2.8 1.9-.1 6.6-1.8 10.7-3.7 12.6-6.3 17.7-14.7 17.6-29.5-.1-6.4-1.3-13.2-2.4-13.1-.2.1-3 1-6.3 2.1zM623.5 473.9c-.2.5-.9 3.9-1.4 7.6-1.1 7.8-.1 15.6 2.7 21.2 4 7.7 15.1 15.6 24.9 17.7 3.1.7 3.2.7 3.9-4.1 2.8-17.3-1.9-29.6-14.2-36.9-5.2-3.1-15.2-6.5-15.9-5.5zM494.3 478.4c-12.1 9.2-16.7 21.2-13.2 34.1 1.6 5.9 6 14.5 7.5 14.5 1.7 0 10.3-6.9 13.9-11.1 5.2-6.2 6.8-11.3 6.3-20.4-.3-6.4-1.1-9.5-3.6-14.8-1.7-3.7-3.5-6.7-4-6.7-.6 0-3.6 2-6.9 4.4zM718.6 483.7c-4.7 13.4-2.7 25.1 5.5 33.9 5.6 5.8 17.2 12.5 18.8 10.9.6-.6 1.8-3.9 2.7-7.4 2-8 1.5-18.1-1.1-23.6-3.5-7.2-14.3-16.2-21.6-18-2.5-.6-2.8-.3-4.3 4.2zM345.2 485.7c-5.2 4.4-2.4 12.3 4.2 12.3 4.1 0 6.6-2.6 6.6-6.8 0-6.1-6.3-9.3-10.8-5.5zM944.6 492.5c-3.9 10.2 7.2 21 17.8 17.5 4.6-1.5 6.6-4.4 6.6-9.7 0-3.3.4-4.3 2-4.8 1.1-.3 2-1.3 2-2.1 0-1.2-1.3-1.4-6.2-1.2-6.8.3-8.3 1.9-3.8 4.1 1.9 1 2.5 2 2.5 4.7 0 4.7-3.6 6.6-9.4 5-4.9-1.3-9.5-6.4-8.6-9.4 1.2-3.8 1-5-.6-5.4-.9-.1-1.9.4-2.3 1.3zM516.5 509.5c-3.9 3.8-3.2 8.6 1.6 11 7.3 3.8 13.8-6.3 7.3-11.4-3.5-2.7-5.9-2.6-8.9.4zM944 521.5c0 2.5.3 2.7 2.9 2.2 3.9-.8 17.2.4 16.5 1.5-.3.4-1 .5-1.6.2-.7-.4-.8-.2-.4.5 1 1.5-4.8 8.8-13.6 17.1-5.3 5.1-6.6 6.8-5.8 8 .8 1.2 1.3 1.3 2.7.3 6.4-4.4 7.2-4.6 14.6-2.8 3.8.9 7.3 1.3 7.8.8 1.7-1.7-.9-3.4-6.9-4.4-4.4-.8-6-1.5-5.4-2.3.5-.6 3.5-4.6 6.6-8.8 3.1-4.2 6.3-8.1 7.1-8.6.9-.4 1.3-1.5 1-2.4-.4-1.1-2.7-1.7-8.3-2.2-4.2-.4-9.8-.9-12.4-1.3-4.7-.5-4.8-.5-4.8 2.2zM940.4 559.4c-1.1 2.8 1.5 4.6 6.5 4.6 2.5 0 7.5.5 11 1.1 4.5.7 6.7.7 7.5-.1 1.8-1.8-.6-2.8-10.9-4.5-5.5-.8-10.8-1.8-11.8-2.1-1-.3-2 .1-2.3 1zM938.4 573.4c-.9 2.3.3 4.7 2 4 1.8-.7 15.4 1.5 16.1 2.6.7 1.1-12.1 13.1-18.7 17.5-3.2 2.1-5.8 4.4-5.8 5.1 0 2.4 2 2.5 5.6.4 4-2.5 8.1-2.2 14.7 1.2 2.7 1.3 4.3 1.6 5 .9 1.9-1.9-.2-3.8-6.3-5.5l-6.3-1.8 9.2-9c5-5 9.1-9.7 9.1-10.4 0-.8-1-1.6-2.2-1.8-6-1.1-17.5-3.6-19.5-4.2-1.6-.4-2.5-.1-2.9 1zM929.5 612c-.9 1.5 1.5 5.2 3 4.7.7-.3 5.7.6 11 1.9 6.9 1.8 10.1 2.2 10.8 1.5 1.8-1.8-.1-2.7-12.1-6-12.9-3.6-11.9-3.4-12.7-2.1zM946.2 632.9l-1.2 5.8-10.8-3.8c-5.9-2.1-11.1-3.9-11.5-3.9-.5 0-.7 1.2-.5 2.7.3 2.4.9 2.8 6.3 3.9 3.3.6 8.6 2.2 11.7 3.4 6.1 2.2 7.8 2 7.8-.9 0-1 .7-3.8 1.5-6.1 1.1-3.2 1.2-4.6.4-5.6-1.9-2.3-2.4-1.6-3.7 4.5zM919 645.5c-2.1 2.5-2.3 8.7-.3 12.5 3.4 6.6 12.6 10.1 18.4 7 4-2.2 6.1-9.8 3.9-14.1-1.7-3.2-3.3-2.3-2.7 1.5.8 4.8-.1 7.2-2.9 8.5-5.2 2.3-11.3.2-13.9-4.9-2-3.8-1.9-5.7.4-7.7 2-1.7 1.8-4.3-.4-4.3-.7 0-1.8.7-2.5 1.5zM909 668.9c-.5 1.1-1 3.1-1 4.5 0 5.6 9.8 12.6 17.7 12.6 3.4 0 4.6-.6 6.7-3.1 2.3-2.7 3.5-6.9 2-6.9-.3 0-1.9 1.3-3.4 3-2.8 3-6.2 3.8-8.8 2.1-1-.6-1.1-1.3-.1-3.4 1.2-2.6.7-5.7-.9-5.7-.4 0-1.4 1.6-2.1 3.5-1.3 3.8-1.8 4.1-4.2 2.2-2.6-2-3.8-4.9-2.9-7.3 1.4-3.6-1.2-4.8-3-1.5zM902.3 691.5c-4 1.7-7.3 6.9-7.3 11.3 0 2.9.3 3.3 2 2.7 2.3-.7 15.6 5.5 17.7 8.2 1.5 1.9 2.7 1.2 4.7-3.1 3.6-7.7.6-14.9-7.9-18.7-4.8-2.2-5.1-2.2-9.2-.4zm9.3 5.1c5.5 2.6 7.9 7.5 5.5 11.2-.6 1-2.7.4-9.5-3-4.7-2.3-8.6-4.8-8.6-5.5 0-1.7 4-4.3 6.8-4.3 1.3 0 3.9.7 5.8 1.6zM114.3 725.5c-1.1.8-3.5 3.7-5.3 6.5-3.4 5.3-5.8 6.4-6.7 3-.8-2.9-3.8-2.1-3.8 1 0 1.6.9 2.9 2.5 3.8 3.7 2 7.2.2 12.2-6.3 4.7-6.1 7.6-7 10.1-3.3 1.1 1.8 1.8 2 2.7 1.2 2.6-2.5-2.7-7.4-7.8-7.4-1 0-2.7.7-3.9 1.5zM884 725.8c-5.1 2.3-9 7.5-9 12 0 1.8.4 2.2 1.8 1.8 2.1-.7 16.7 7.5 17.6 10 1.5 3.9 6.6-4.5 6.6-11 0-4.2-3.6-8.9-9.1-11.6-4-2.1-5.4-2.3-7.9-1.2zm8.3 6c5.3 3.5 6.8 7.2 4.7 11.2-1 1.8-1.5 1.7-8.6-2.7-8.4-5.2-9.7-6.9-6.9-8.9 2.6-1.9 7.5-1.7 10.8.4zM126 738.4c0 .8-3.8 4-8.5 7.1-4.7 3.1-8.5 6-8.5 6.5 0 2.2 2.4 2 6-.4 2.2-1.4 4.2-2.6 4.4-2.6.2 0 1.8 1.8 3.6 4l3.1 3.9-4.1 2.7c-4 2.7-5.3 5.4-2.5 5.4.9 0 2.9-1 4.6-2.2 1.6-1.2 4-2.3 5.2-2.3 1.3 0 2.1-.5 1.9-1.3-.1-.7 1.6-2.1 3.8-3 4.2-1.8 4.9-3.2 2.6-5.2-1.2-.9-2.2-.6-5.2 1.4l-3.8 2.5-2.8-4.2-2.8-4.2 4-2.3c4.2-2.5 4.8-4 2.8-6-1.6-1.6-3.8-1.5-3.8.2zM868.7 746.7c-1.3 1.3-.7 4.3.9 4.3 1.8 0 13.4 7.9 13.4 9 0 1.3-13.8 5.9-23 7.8-6.4 1.3-8.6 2.2-8.8 3.5-.3 1.4.5 1.7 5.3 1.7 5.5 0 5.8.1 10.9 5.3 4.9 5.1 7.6 6.2 7.6 3.2 0-.8-2.2-3.3-4.9-5.6l-4.9-4.2 8.1-3.4c4.5-1.9 10-4 12.1-4.7 4.9-1.6 5.5-2.9 2.1-5.3-1.4-1-5.7-4.2-9.6-7.1-7-5.2-8-5.8-9.2-4.5zM141.5 764.2c-1.1 1.2-4.9 4.4-8.4 7.2-3.6 2.8-6.6 5.7-6.9 6.3-.9 2.9 3.4.9 12.8-5.8 8-5.7 9.8-7.4 8.9-8.5-1.7-2-4.1-1.7-6.4.8zM150.6 772.5c-.3.9-.6 2.8-.6 4.1 0 3-4.5 7.4-10.1 10-3.8 1.7-4.9 3.6-2.8 4.9.5.4 2.9-.6 5.2-2.1 2.3-1.5 4.7-2.7 5.4-2.7.7 0 1-.4.7-.8-.2-.4 0-1 .6-1.4.6-.4 1 .7 1 2.8 0 1.9.5 5.9 1.1 8.8.5 3 1 7.3 1 9.7.1 6 2 6.3 7.3 1.4 2.4-2.2 6.7-5.7 9.5-7.8 5-3.5 5.1-3.7 3.5-5.5-2.1-2.4-2.9-2.4-4 0-.5 1-3.4 4-6.4 6.5-5.4 4.6-5.5 4.6-6.4 2.4-.5-1.3-1-8.8-1.1-16.8-.1-12.3-.4-14.5-1.7-14.8-.8-.2-1.8.4-2.2 1.3zM838.3 784.6c-.3.8.3 2.3 1.4 3.4 2.4 2.2 8.6 16.4 8.7 19.9.1 3.1 1.8 3.7 3.3 1.1 1-1.6.9-2.7-.6-6.3-1.8-4.3-1.8-4.3.3-6.7 4-4.6 4.9-5 9-3.9 2.7.8 4.1.7 5.2-.2 2.5-2.1 1.6-3.9-1.8-3.9-1.8 0-7.9-1.1-13.6-2.5-12.2-3-11.1-2.9-11.9-.9zm11.9 8c-2 2.8-2.8 3-3.5.6-.2-.9-.8-2.5-1.2-3.4-.6-1.5-.3-1.5 2.9-.6 3.4 1.1 3.4 1.1 1.8 3.4zM170.8 811.4c-7.6 8.1-9.1 10.6-6.5 10.6 1.9 0 18.2-15.2 18.2-16.9 0-.9-.9-1.7-2-1.8-1.3-.1-4.5 2.6-9.7 8.1zM818.6 804.6c-2 1.9-2 4.5-.3 8.7 1.2 2.7 2.5 3.6 8.1 5.6 3.6 1.3 6.9 2.8 7.3 3.4.3.6-.4 1.8-1.6 2.8-2.4 2-2 3.9.8 3.9 4 0 5.5-5.6 2.6-9.7-.8-1.1-4.4-3.3-8-4.8-5.3-2.3-6.5-3.2-6.5-5.1 0-1.3.5-2.6 1-2.9 1.5-.9 1.2-3.5-.4-3.5-.8 0-2.2.7-3 1.6zM186.7 811.7c-.4.3-.7 2.3-.7 4.3 0 4.4-2.6 8.1-8.1 11.6-4 2.5-5.2 5.4-2.1 5.4.9-.1 3.7-1.8 6.2-4l4.4-3.9 2.8 9.7c1.5 5.3 2.7 10.9 2.8 12.4 0 4.4 3.8 3.7 7.5-1.3 1.7-2.3 5.2-6.1 7.9-8.5 4-3.7 4.6-4.7 3.6-5.9-1.4-1.7-4-2-4-.6 0 1.3-9.8 13.1-10.9 13.1-1.2 0-4.1-12.3-4.7-19.9-.8-10.3-1.4-13.1-2.8-13.1-.7 0-1.6.3-1.9.7zM806.2 818.3c-2.5 2.6-2.9 7.9-.9 11.4 2.2 3.9 8.8 10.3 11.3 10.9 3 .8 8-1.2 9.9-3.9 2.2-3.1.8-3.8-2.9-1.6-3.6 2.1-6.9 1.6-9.4-1.3-.9-1.2-.7-1.9 1.3-3.8 2.5-2.3 3.3-5 1.6-5-.5 0-1.4.7-2.1 1.6-.8.8-2.2 2-3.2 2.5-1.5.8-2.1.4-3.5-2.6-1.6-3.4-1.6-3.6.5-6.4 1.9-2.6 2-4.1.2-4.1-.4 0-1.6 1-2.8 2.3zM792.2 832.2c-1.8 1.8-1.5 4.6.6 5.3.9.3 4.6 4 8.1 8.1 6 6.9 8 8.2 8.8 5.8.2-.5-3.1-5-7.2-9.9-4.1-5-7.5-9.3-7.5-9.8 0-1.1-1.4-.9-2.8.5zM777.7 842.1c-3.4 2-6.2 9.9-3.4 9.9 1.5 0 11.7 13 11.7 14.8 0 1.4 1.9 1.5 4 .2 1.2-.7.9-1.6-1.9-5-1.8-2.3-3.1-4.3-2.9-4.5.2-.2 3.4.1 7.1.7 4.8.8 7.1.8 7.9 0 1.8-1.8 0-3-5.5-3.7-8.3-1-8.3-1.1-7.9-5.1.3-2.7-.1-4.1-1.9-6-2.4-2.6-4.4-2.9-7.2-1.3zm4.6 4.9c1.4 1.9 1.2 7-.2 7-.4 0-1.5-1.4-2.5-3.1-2.8-4.7-.4-8.3 2.7-3.9zM215.3 845c-4.9 2.2-8.3 7-8.3 11.6 0 3.5 3 8 6 8.9 1.6.5 1.8 1 1 2.6-1.1 1.9-.6 3.9.8 3.9.4 0 2.5-2.3 4.6-5.1 2.7-3.6 3.5-5.4 2.7-6.2-.7-.7-1.6-.5-3 .7-2.2 2-4.9 1.5-7.6-1.4-1.5-1.7-1.6-2.3-.5-5.1 3-7.2 15.5-10.1 17.5-4 .7 2.4 3.3 2.8 4.1.6.7-1.8-1-4.2-4.5-5.9-4.8-2.5-8.4-2.7-12.8-.6zM758.9 859.5c-7.6 4.1-5.8 16.8 2.9 21.1 4.1 1.9 7.5 1.2 10.8-2.3 4.6-5 2.1-15.3-4.6-18.8-3.6-1.8-5.7-1.8-9.1 0zm8.3 4.5c1.4 1 3.1 3.3 3.8 5 3.1 7.5-5 11.4-10.4 4.9-6-7.1-.4-15.5 6.6-9.9zM251.9 867.3c-1.8 2.4-16.7 10.7-19.3 10.7-2.3 0-2 2.7.4 3.5 1.3.4 3.4-.1 5.6-1.4 4.5-2.7 4.8-2.6 9.1.6 3.2 2.5 3.4 3 2.9 6.6-.7 4 .5 6.7 2.9 6.7.8 0 1.4-3 1.8-9.8.4-5.3 1-11.8 1.3-14.5.6-4.2.4-4.7-1.2-4.7-1.1 0-2.6 1.1-3.5 2.3zm-.2 11.4c-.3.2-1.7-.3-3.2-1.3l-2.6-1.7 2.8-1.7 2.8-1.7.3 3c.2 1.6.1 3.1-.1 3.4zM742.3 877.5c.9 6.1-.9 12.8-4.2 16.4-2.5 2.7-3 2.8-7.8 2.1-2.8-.5-8.5-2.3-12.8-4-6.9-2.9-7.8-3.1-9.2-1.7-1.4 1.4-1.1 1.7 2.6 3.7 4.9 2.4 6.9 6.2 7.4 13.7.2 3.6.7 4.9 2 5.1 2.6.5 3-1.9 1.4-8.7-1.5-6.2-1.5-6.3.7-5.6 1.1.3 4.6.9 7.7 1.2 5.2.5 5.8.3 9.2-2.6 1.9-1.8 4.4-5.2 5.3-7.8 1.4-3.6 2-4.2 2.8-3.1 5.2 6.9 5.6 7.2 7.2 5.6 1.5-1.4 1.3-1.9-2.2-5.5-2.2-2.1-4.6-5.9-5.5-8.3-1-2.7-2.3-4.6-3.4-4.9-1.6-.3-1.7.2-1.2 4.4zM282.2 883.2c-.7.7-1.2 1.8-1.2 2.6 0 1.7-7.7 15.9-9.1 16.7-1.8 1.2-.8 2.5 3.4 4.6 2.3 1.2 5 2.8 5.9 3.6 1.9 1.7 4.8 1.1 4.8-.9 0-.7-2.3-2.3-5.1-3.5l-5-2.2 3.3-5.8c1.7-3.2 4.2-7.5 5.5-9.5 1.3-2.1 2.3-4.4 2.3-5.3 0-1.8-3.1-2-4.8-.3zM299.5 896.2c-.3 1.3-2.4 6.2-4.6 11-3.7 7.9-4.2 10.8-1.9 10.8.4 0 2.9-4.2 5.5-9.3 2.6-5 5.4-10 6.2-10.9 1.9-2.1.9-3.8-2.2-3.8-1.6 0-2.6.7-3 2.2zM695 896c-1.1 1.1-2.2 3-2.5 4.3-1.4 5.4 4.2 17.5 8.7 19.1 3.6 1.3 10.2-.3 10.6-2.6.3-1.4-.3-1.5-3.8-1.1-3.3.5-4.5.2-6.5-1.7-3.2-3-3.1-3.5.5-5 1.8-.8 3-2 3-3.1 0-2.3-.3-2.3-4.1-.3-3.6 1.8-3.8 1.7-4.6-2.9-.4-3-.2-3.7 2.1-5.2 1.4-1 2.6-2.1 2.6-2.6 0-1.6-4-.9-6 1.1zM316 903.7c-4.5 1.6-9 8.3-9 13.2 0 3.6 4 8.6 7.5 9.5 1.8.5 2.5 1.3 2.5 3.1 0 4.4 2.7 2.7 5-3 2.4-5.8 2.1-7.8-.8-5.7-3.1 2.2-4.4 2.5-7.1 1.6-3.8-1.4-4.1-7-.6-11.2 3.2-3.8 8.5-5.8 11.5-4.2 1.1.6 2 1.5 2 2 0 .6.9 1 2 1 1.3 0 2-.7 2-2.1 0-3.4-9.6-6.2-15-4.2zM680 906.7c-.7 10.7-3.1 17-7.5 19.9-3.4 2.2-9.1.6-18.6-5.3-3.9-2.4-7.8-4.3-8.7-4.1-2.7.5-2.4 2.6.7 4.3 4.3 2.2 5.4 4.8 5.3 13.2-.1 7.1 0 7.4 2.1 7.1 2.1-.3 2.2-.7 1.9-7.6l-.4-7.2 4.7 2c9.3 4 14.9 2.1 20.5-6.6l2.7-4.3 2.1 4.5c2.1 4.2 4.4 5.6 5.7 3.4.3-.5-.5-2.5-1.9-4.2-1.3-1.8-3.2-6.1-4.2-9.6-1-3.6-2.3-6.2-3.1-6.2-.7 0-1.3.3-1.3.7zM337.6 910.9c-.4.5-.4 1.6-.1 2.3.3.8-1 5.6-3 10.7-1.9 5.1-3.5 9.5-3.5 9.7 0 .2.9.4 1.9.4 1.4 0 2.3-1.2 3.4-4.3 1.2-3.7 1.7-4.2 4.1-3.9 1.5.2 3.8.7 5.1 1.2 2.4.9 2.4.9.9 6.1-.8 2.8-1.3 5.3-1 5.6 1.3 1.3 3.3-.8 4.6-4.7.7-2.2 2.2-4.6 3.3-5.2 1.3-.7 1.6-1.3.9-2-.8-.8-.5-2.3.9-5.1 1.7-3.2 1.8-4.1.7-4.8-2.4-1.6-3.8-.3-5.8 5.3l-.9 2.7-4.3-1.7c-2.4-.8-4.5-1.7-4.7-1.9-.2-.1.4-2.1 1.4-4.3 1.5-3.2 1.5-4.2.5-5.5-1.4-1.7-3.6-2-4.4-.6zM362 921.4c0 .8 1.4 1.9 3 2.5 3.6 1.2 3.7 2.1.5 11-2 5.5-2.3 7.5-1.5 9.1 1.4 2.5 4.4 4.2 6.4 3.4 2.2-.8 2-1.9-.6-3.6-2.1-1.4-2.2-1.8-1.1-5.9.6-2.4 1.9-6.1 2.7-8.1 1.4-3.3 1.8-3.6 4.3-2.9 3.2.9 5.3.4 5.3-1.2 0-.7-3.7-2.2-8.3-3.5-9.6-2.6-10.7-2.7-10.7-.8zM617.5 925.4c-5 2.2-7.7 6-8.3 11.4-.5 6 1.6 10.5 6 12.8 2.6 1.4 3.8 1.4 7.1.4 3.5-1 4.1-1 4.9.4 1.1 1.9 3.8 2.1 3.7.3-.2-2.8-3.5-11.2-4.4-11.2-.5 0-1.2 1.1-1.3 2.5-.6 3.7-2.1 5-5.7 5-4.3 0-5.9-2.1-5.9-8.1 0-6.2 2.8-10.4 7-10.4 3.7 0 5.5-1.2 4.7-3-.6-1.8-3.8-1.9-7.8-.1zM400.4 932.9c-3.8 2.3-6.8 9.2-6 13.6 1.2 6.1 8.4 10 13.6 7.3 4-2.1 7-7.5 7-12.5 0-3.6-.6-5-2.9-7.4-3.5-3.4-7.2-3.7-11.7-1zm9.6 4c2.7 5.2-.6 14.1-5.2 14.1-5.6 0-7.8-8.2-3.7-13.4 2.5-3.2 7.3-3.6 8.9-.7zM593.6 931.8c-.3.5.1 2.7.9 4.9s1.7 6.3 2.1 9.2l.7 5.1-4-1.4c-5.5-1.9-13.7-6.2-19.9-10.3-4.8-3.2-7.4-3.6-7.4-1.3 0 .4 1.6 2.4 3.5 4.3 3.4 3.4 3.5 3.7 3.5 11.2 0 6.7.2 7.6 1.8 7.3 1.4-.3 1.7-1.5 1.6-7.5v-7.2l2.8 1.5c1.5.8 6.2 2.8 10.5 4.4 4.2 1.6 8 3.5 8.4 4.2.7 1 1.2.9 2.5-.4 1.5-1.5 1.6-2.3.6-5.5-.6-2.1-1.3-6.1-1.7-8.8-1.2-9.3-1.6-10.5-3.5-10.5-1 0-2.1.4-2.4.8zM422.5 935c-.4.6.3 2.7 1.4 4.6 2.6 4.4 2.6 7 .1 13.6-2.5 6.5-2.5 6.8 0 6.8 1.5 0 2.3-1.2 3.5-5.2.8-2.8 1.5-5.9 1.5-6.8 0-1.2 1.2-.6 4.3 2.3 2.3 2.1 6.1 5.3 8.4 7 2.4 1.6 4.5 3.8 4.8 4.9 1.3 4 5.5 1.1 5.5-3.8 0-1.8.7-6.7 1.5-11 1.6-8.2 1-10.8-2.1-8.9-1 .7-1.6 3.2-1.9 8.5-.5 11.5-.8 11.8-6.8 6.8-2.7-2.3-7.9-7.7-11.4-12-6.5-7.8-7.6-8.7-8.8-6.8zM555.2 938.3c-.7.9-.6 4.2.5 11.2 1.7 11.4 2.8 14.9 4.4 13.9 1.1-.6.9-6.4-.8-21.2-.6-5.2-2-6.5-4.1-3.9zM530.3 939.3c-4.3 1.6-4.8 2.4-3.2 4.3 1 1.2 1.4 4.6 1.4 11.5v9.7l2.9.6c4.1.8 11.1-2.5 13-6.3 2.1-4 2-11.6-.1-15.2-2.5-4.3-9-6.4-14-4.6zm8.6 4.6c2.5 2.5 3.6 8.3 2.4 12.4-1 3.5-5.6 6.8-7.1 5.2-.5-.6-1.2-5.2-1.6-10.3l-.7-9.2h2.6c1.4 0 3.4.9 4.4 1.9zM506.1 939.9c-.8.5-1.5 2.2-1.6 3.7-.2 3.1-7.8 18.8-9.5 19.9-1.9 1.1-1 2.5 1.6 2.5 2 0 2.9-.9 4.5-4.5 2-4.5 2-4.5 6.9-4.5 4.8 0 5 .1 7 4 1.6 3 2.6 4 4.5 4 1.4 0 2.5-.2 2.5-.5 0-.2-1.5-2.8-3.4-5.7-1.8-2.9-5-8.6-7-12.6-2-3.9-3.7-7.2-3.9-7.2-.1 0-.8.4-1.6.9zm3.3 10.8l1.7 3.3H508c-1.6 0-3-.5-3-1.1 0-.5.4-.8.9-.5.5.3.9 0 .8-.7-.1-2.4.3-5 .7-4.6.2.2 1.1 1.9 2 3.6zM475.9 940.4c-.2.2-.4 6.7-.3 14.3.1 11.2.3 13.8 1.5 13.8.9 0 1.5-1.3 1.7-4 .5-8.2.7-8.5 6.1-8.5 3.3 0 5.1-.5 5.4-1.4.8-2.1-.2-2.6-5.5-2.6H480v-4c0-4 0-4 3.8-4 5.2 0 8.2-1 8.2-2.6 0-1.1-1.8-1.4-7.8-1.4-4.3 0-8.1.2-8.3.4z"/></svg>